<?xml version="1.0" encoding="UTF-8" standalone="no"?><!DOCTYPE svg PUBLIC "-//W3C//DTD SVG 1.1//EN" "http://www.w3.org/Graphics/SVG/1.1/DTD/svg11.dtd"><svg width="100%" height="100%" viewBox="0 0 12800 10242" version="1.1" xmlns="http://www.w3.org/2000/svg" xmlns:xlink="http://www.w3.org/1999/xlink" xml:space="preserve" xmlns:serif="http://www.serif.com/" style="fill-rule:evenodd;clip-rule:evenodd;stroke-linejoin:round;stroke-miterlimit:2;"><g><path d="M6399.69,5061.7c-0.979,-0.033 -1.938,-0.033 -2.913,-0c-0.296,-0 -0.587,0.017 -0.879,0.017c-0.996,0.112 -1.971,0.241 -2.946,0.387c-0.962,0.117 -1.921,0.246 -2.867,0.392c-0.958,0.179 -1.92,0.392 -2.862,0.616c-0.862,0.167 -1.713,0.342 -2.559,0.538l-0.387,0c-0.279,0.133 -0.571,0.263 -0.85,0.392c-1.283,0.391 -2.538,0.813 -3.791,1.288c-0.897,0.325 -1.788,0.699 -2.667,1.074c-0.913,0.371 -1.792,0.78 -2.671,1.205c-0.862,0.42 -1.725,0.879 -2.554,1.35c-0.846,0.454 -1.692,0.924 -2.525,1.433c-0.813,0.504 -1.608,1.042 -2.392,1.591c-0.796,0.538 -1.596,1.109 -2.358,1.696c-0.767,0.584 -1.517,1.205 -2.246,1.821c-0.75,0.621 -1.467,1.271 -2.167,1.938c-0.7,0.666 -1.383,1.35 -2.05,2.05c-0.683,0.683 -1.333,1.399 -1.987,2.133c-0.634,0.733 -1.25,1.479 -1.854,2.246c-0.605,0.75 -1.171,1.529 -1.742,2.312c-0.554,0.796 -1.108,1.592 -1.629,2.409c-0.521,0.812 -1.025,1.625 -1.496,2.47c-0.471,0.85 -0.929,1.713 -1.367,2.592c-0.425,0.862 -0.845,1.725 -1.237,2.588c-0.392,0.895 -0.767,1.804 -1.121,2.716c-0.346,0.896 -0.671,1.792 -0.962,2.7c-0.309,0.929 -0.588,1.859 -0.846,2.8c-0.263,0.913 -0.488,1.842 -0.7,2.784c-0.213,0.945 -0.392,1.904 -0.538,2.866c-0.179,0.942 -0.308,1.905 -0.437,2.863c-0.15,0.962 -0.279,1.921 -0.375,2.9c-0.034,0.958 -0.034,1.904 -0,2.862c-0.017,0.376 -0.017,0.75 -0,1.125c-0.034,0.959 -0.034,1.905 -0,2.863c-0,0.308 0.016,0.621 0.033,0.929c0.096,0.958 0.225,1.904 0.371,2.863c0.116,0.962 0.246,1.937 0.392,2.899c0.179,0.959 0.391,1.921 0.621,2.863c0.162,0.863 0.341,1.741 0.533,2.587l-0,0.392c0.133,0.292 0.262,0.571 0.391,0.863c0.392,1.271 0.817,2.537 1.288,3.791c0.325,0.913 0.7,1.809 1.075,2.705c0.371,0.879 0.745,1.753 1.171,2.633c0.42,0.863 0.879,1.712 1.35,2.558c0.454,0.846 0.929,1.675 1.433,2.504c0.504,0.829 1.025,1.646 1.579,2.442c0.538,0.8 1.088,1.596 1.658,2.363c0.605,0.762 1.205,1.512 1.826,2.245c0.633,0.73 1.266,1.463 1.937,2.163c0.667,0.7 1.35,1.383 2.05,2.05c0.7,0.683 1.4,1.337 2.129,1.971c0.733,0.65 1.484,1.271 2.25,1.87c0.746,0.588 1.53,1.171 2.325,1.742c0.783,0.554 1.579,1.092 2.392,1.613c0.816,0.537 1.646,1.025 2.475,1.512c0.845,0.471 1.691,0.929 2.554,1.35c0.863,0.459 1.741,0.879 2.638,1.288c0.879,0.375 1.775,0.75 2.67,1.075c0.913,0.358 1.821,0.7 2.751,1.008c0.912,0.291 1.837,0.571 2.783,0.812c0.929,0.28 1.871,0.521 2.817,0.734c0.941,0.212 1.887,0.391 2.829,0.554c0.946,0.162 1.904,0.308 2.866,0.421c0.942,0.15 1.904,0.279 2.863,0.391c0.962,0.017 1.937,0.017 2.9,0c0.375,0.017 0.746,0.017 1.12,0.034c0.979,0.017 1.938,0.017 2.913,-0c0.296,-0.017 0.587,-0.017 0.879,-0.034c0.996,-0.095 1.971,-0.224 2.946,-0.391c0.962,-0.096 1.904,-0.225 2.867,-0.388c0.941,-0.179 1.887,-0.375 2.817,-0.62c0.878,-0.146 1.741,-0.342 2.604,-0.538l0.387,0c0.279,-0.129 0.554,-0.258 0.85,-0.388c1.283,-0.374 2.571,-0.8 3.825,-1.27c0.892,-0.342 1.787,-0.7 2.667,-1.092c0.912,-0.375 1.791,-0.763 2.671,-1.188c0.862,-0.437 1.724,-0.895 2.553,-1.366c0.863,-0.454 1.692,-0.929 2.526,-1.434c0.829,-0.504 1.641,-1.025 2.437,-1.579c0.8,-0.554 1.579,-1.121 2.363,-1.708c0.762,-0.583 1.512,-1.188 2.246,-1.804c0.733,-0.621 1.449,-1.254 2.162,-1.904c0.7,-0.671 1.387,-1.354 2.054,-2.055c0.667,-0.683 1.333,-1.383 1.967,-2.083c0.637,-0.729 1.254,-1.479 1.858,-2.246c0.6,-0.762 1.188,-1.545 1.742,-2.325c0.566,-0.783 1.104,-1.579 1.625,-2.396c0.521,-0.812 1.025,-1.641 1.516,-2.487c0.471,-0.846 0.926,-1.708 1.35,-2.587c0.438,-0.846 0.846,-1.709 1.238,-2.588c0.387,-0.879 0.746,-1.775 1.087,-2.671c0.359,-0.912 0.684,-1.825 1.013,-2.75c0.292,-0.913 0.55,-1.825 0.796,-2.75c0.275,-0.929 0.521,-1.875 0.75,-2.817c0.191,-0.962 0.37,-1.92 0.537,-2.866c0.163,-0.958 0.309,-1.921 0.421,-2.863c0.163,-0.975 0.275,-1.937 0.392,-2.912c0.016,-0.946 0.016,-1.904 0,-2.867l0,-1.121c0.016,-0.962 0.016,-1.937 0,-2.9c-0.017,-0.291 -0.017,-0.583 -0.034,-0.896c-0.095,-0.975 -0.229,-1.95 -0.391,-2.929c-0.096,-0.958 -0.225,-1.92 -0.388,-2.862c-0.179,-0.963 -0.375,-1.921 -0.621,-2.867c-0.162,-0.879 -0.341,-1.741 -0.537,-2.604l0,-0.371c-0.129,-0.296 -0.258,-0.571 -0.391,-0.867c-0.371,-1.266 -0.797,-2.537 -1.267,-3.791c-0.342,-0.908 -0.7,-1.804 -1.092,-2.7c-0.359,-0.896 -0.75,-1.775 -1.154,-2.638c-0.442,-0.862 -0.879,-1.708 -1.355,-2.554c-0.454,-0.846 -0.941,-1.691 -1.428,-2.508c-0.521,-0.813 -1.042,-1.609 -1.596,-2.409c-0.538,-0.795 -1.109,-1.579 -1.692,-2.358c-0.588,-0.767 -1.204,-1.516 -1.825,-2.246c-0.633,-0.749 -1.271,-1.483 -1.937,-2.2c-0.667,-0.7 -1.351,-1.383 -2.051,-2.05c-0.699,-0.683 -1.399,-1.333 -2.133,-1.983c-0.729,-0.621 -1.479,-1.221 -2.246,-1.808c-0.746,-0.604 -1.529,-1.188 -2.308,-1.742c-0.817,-0.571 -1.612,-1.108 -2.441,-1.629c-0.817,-0.521 -1.646,-1.025 -2.475,-1.513c-0.846,-0.47 -1.692,-0.929 -2.555,-1.35c-0.879,-0.458 -1.741,-0.879 -2.637,-1.287c-0.879,-0.375 -1.776,-0.734 -2.671,-1.075c-0.896,-0.354 -1.804,-0.7 -2.717,-1.008c-0.912,-0.292 -1.842,-0.567 -2.783,-0.813c-0.929,-0.263 -1.871,-0.521 -2.817,-0.733c-0.941,-0.213 -1.887,-0.392 -2.833,-0.538c-0.959,-0.179 -1.934,-0.308 -2.896,-0.437c-0.958,-0.146 -1.904,-0.279 -2.863,-0.375c-0.979,-0.034 -1.937,-0.034 -2.916,-0c-0.359,-0.017 -0.713,-0.034 -1.071,-0.05l-0.033,-0.063Z" style="fill:#fff;fill-rule:nonzero;"/><path d="M6399.69,5061.7c-0.979,-0.033 -1.938,-0.033 -2.913,-0c-0.296,-0 -0.587,0.017 -0.879,0.017c-0.996,0.112 -1.971,0.241 -2.946,0.387c-0.962,0.117 -1.921,0.246 -2.867,0.392c-0.958,0.179 -1.92,0.392 -2.862,0.616c-0.862,0.167 -1.713,0.342 -2.559,0.538l-0.387,0c-0.279,0.133 -0.571,0.263 -0.85,0.392c-1.283,0.391 -2.538,0.813 -3.791,1.288c-0.897,0.325 -1.788,0.699 -2.667,1.074c-0.913,0.371 -1.792,0.78 -2.671,1.205c-0.862,0.42 -1.725,0.879 -2.554,1.35c-0.846,0.454 -1.692,0.924 -2.525,1.433c-0.813,0.504 -1.608,1.042 -2.392,1.591c-0.796,0.538 -1.596,1.109 -2.358,1.696c-0.767,0.584 -1.517,1.205 -2.246,1.821c-0.75,0.621 -1.467,1.271 -2.167,1.938c-0.7,0.666 -1.383,1.35 -2.05,2.05c-0.683,0.683 -1.333,1.399 -1.987,2.133c-0.634,0.733 -1.25,1.479 -1.854,2.246c-0.605,0.75 -1.171,1.529 -1.742,2.312c-0.554,0.796 -1.108,1.592 -1.629,2.409c-0.521,0.812 -1.025,1.625 -1.496,2.47c-0.471,0.85 -0.929,1.713 -1.367,2.592c-0.425,0.862 -0.845,1.725 -1.237,2.588c-0.392,0.895 -0.767,1.804 -1.121,2.716c-0.346,0.896 -0.671,1.792 -0.962,2.7c-0.309,0.929 -0.588,1.859 -0.846,2.8c-0.263,0.913 -0.488,1.842 -0.7,2.784c-0.213,0.945 -0.392,1.904 -0.538,2.866c-0.179,0.942 -0.308,1.905 -0.437,2.863c-0.15,0.962 -0.279,1.921 -0.375,2.9c-0.034,0.958 -0.034,1.904 -0,2.862c-0.017,0.376 -0.017,0.75 -0,1.125c-0.034,0.959 -0.034,1.905 -0,2.863c-0,0.308 0.016,0.621 0.033,0.929c0.096,0.958 0.225,1.904 0.371,2.863c0.116,0.979 0.246,1.971 0.392,2.945c0.179,0.963 0.391,1.904 0.621,2.867c0.162,0.846 0.341,1.691 0.533,2.537l-0,0.392c0.133,0.292 0.262,0.571 0.391,0.863c0.392,1.271 0.817,2.537 1.288,3.791c0.325,0.913 0.7,1.809 1.075,2.705c0.371,0.879 0.745,1.753 1.171,2.633c0.42,0.863 0.879,1.712 1.35,2.558c0.454,0.846 0.929,1.675 1.433,2.504c0.504,0.829 1.025,1.646 1.579,2.442c0.538,0.8 1.088,1.596 1.658,2.363c0.605,0.762 1.205,1.512 1.826,2.245c0.633,0.73 1.266,1.463 1.937,2.163c0.667,0.7 1.35,1.383 2.05,2.05c0.7,0.683 1.4,1.337 2.129,1.971c0.733,0.65 1.484,1.271 2.25,1.87c0.746,0.588 1.53,1.171 2.325,1.742c0.783,0.554 1.579,1.092 2.392,1.613c0.816,0.537 1.646,1.025 2.475,1.512c0.845,0.471 1.691,0.929 2.554,1.35c0.863,0.459 1.741,0.879 2.638,1.288c0.879,0.375 1.775,0.75 2.67,1.075c0.913,0.358 1.821,0.7 2.751,1.008c0.912,0.291 1.837,0.571 2.783,0.812c0.929,0.263 1.871,0.492 2.817,0.701c0.941,0.195 1.887,0.391 2.829,0.537c0.946,0.163 1.904,0.309 2.866,0.425c0.942,0.163 1.904,0.291 2.863,0.392c0.962,0.029 1.937,0.029 2.9,-0l1.12,-0c0.979,0.029 1.938,0.029 2.913,-0c0.296,-0 0.587,-0.017 0.879,-0.033c0.996,-0.101 1.971,-0.23 2.946,-0.376c0.962,-0.112 1.904,-0.245 2.867,-0.391c0.941,-0.196 1.887,-0.392 2.817,-0.617c0.878,-0.163 1.741,-0.342 2.604,-0.554l0.387,-0c0.279,-0.113 0.554,-0.246 0.85,-0.375c1.283,-0.392 2.571,-0.812 3.825,-1.287c0.892,-0.342 1.787,-0.701 2.667,-1.072c0.912,-0.391 1.791,-0.783 2.671,-1.204c0.862,-0.442 1.724,-0.879 2.553,-1.354c0.863,-0.454 1.692,-0.942 2.526,-1.429c0.829,-0.521 1.641,-1.041 2.437,-1.596c0.8,-0.537 1.579,-1.108 2.363,-1.692c0.762,-0.604 1.512,-1.208 2.246,-1.824c0.733,-0.617 1.449,-1.255 2.162,-1.905c0.7,-0.666 1.387,-1.35 2.054,-2.05c0.667,-0.683 1.333,-1.366 1.967,-2.083c0.637,-0.733 1.254,-1.484 1.858,-2.246c0.6,-0.766 1.188,-1.529 1.742,-2.329c0.566,-0.779 1.104,-1.579 1.625,-2.392c0.521,-0.812 1.025,-1.645 1.516,-2.475c0.471,-0.862 0.926,-1.725 1.35,-2.604c0.438,-0.846 0.846,-1.708 1.238,-2.588c0.387,-0.878 0.746,-1.774 1.087,-2.67c0.359,-0.908 0.684,-1.821 1.013,-2.75c0.292,-0.908 0.55,-1.821 0.796,-2.75c0.275,-0.929 0.521,-1.871 0.75,-2.817c0.191,-0.958 0.37,-1.904 0.537,-2.862c0.163,-0.963 0.309,-1.904 0.421,-2.867c0.163,-0.958 0.275,-1.933 0.392,-2.896c0.016,-0.958 0.016,-1.921 0,-2.862l0,-1.125c0.016,-0.992 0.016,-1.971 0,-2.946c-0.017,-0.292 -0.017,-0.605 -0.034,-0.896c-0.095,-0.975 -0.229,-1.954 -0.391,-2.946c-0.096,-0.941 -0.225,-1.904 -0.388,-2.846c-0.179,-0.962 -0.375,-1.92 -0.621,-2.866c-0.162,-0.863 -0.341,-1.709 -0.537,-2.555l0,-0.391c-0.129,-0.292 -0.258,-0.571 -0.391,-0.846c-0.371,-1.287 -0.797,-2.554 -1.267,-3.791c-0.342,-0.93 -0.7,-1.826 -1.092,-2.722c-0.359,-0.878 -0.75,-1.758 -1.154,-2.633c-0.442,-0.862 -0.879,-1.712 -1.355,-2.558c-0.454,-0.846 -0.941,-1.675 -1.428,-2.504c-0.521,-0.817 -1.042,-1.613 -1.596,-2.408c-0.538,-0.801 -1.109,-1.58 -1.692,-2.363c-0.588,-0.75 -1.204,-1.496 -1.825,-2.229c-0.633,-0.767 -1.271,-1.496 -1.937,-2.213c-0.667,-0.7 -1.351,-1.383 -2.051,-2.05c-0.699,-0.683 -1.399,-1.337 -2.133,-1.971c-0.729,-0.633 -1.479,-1.271 -2.246,-1.854c-0.746,-0.604 -1.529,-1.192 -2.308,-1.742c-0.817,-0.57 -1.612,-1.108 -2.441,-1.629c-0.817,-0.52 -1.646,-1.025 -2.475,-1.512c-0.846,-0.475 -1.692,-0.93 -2.555,-1.35c-0.879,-0.458 -1.741,-0.879 -2.637,-1.288c-0.879,-0.375 -1.776,-0.733 -2.671,-1.075c-0.896,-0.358 -1.804,-0.7 -2.717,-1.008c-0.912,-0.292 -1.842,-0.571 -2.783,-0.813c-0.929,-0.279 -1.871,-0.521 -2.817,-0.733c-0.941,-0.212 -1.887,-0.392 -2.833,-0.554c-0.959,-0.162 -1.934,-0.291 -2.896,-0.425c-0.958,-0.146 -1.904,-0.275 -2.863,-0.371c-0.979,-0.033 -1.937,-0.033 -2.916,-0c-0.359,-0.016 -0.713,-0.016 -1.071,-0l-0.033,-0Z" style="fill:#fff;fill-rule:nonzero;"/><path d="M6399.69,5061.7c-0.979,-0.033 -1.938,-0.033 -2.913,-0c-0.296,-0 -0.587,0.017 -0.879,0.017c-0.996,0.112 -1.971,0.241 -2.946,0.387c-0.962,0.117 -1.921,0.246 -2.867,0.392c-0.958,0.179 -1.92,0.392 -2.862,0.616c-0.862,0.167 -1.713,0.342 -2.559,0.538l-0.387,0c-0.279,0.133 -0.571,0.263 -0.85,0.392c-1.283,0.391 -2.538,0.813 -3.791,1.288c-0.897,0.325 -1.788,0.699 -2.667,1.074c-0.913,0.371 -1.792,0.78 -2.671,1.205c-0.862,0.42 -1.725,0.879 -2.554,1.35c-0.846,0.454 -1.692,0.924 -2.525,1.433c-0.813,0.504 -1.608,1.042 -2.392,1.591c-0.796,0.538 -1.596,1.109 -2.358,1.696c-0.767,0.584 -1.517,1.205 -2.246,1.821c-0.75,0.621 -1.467,1.271 -2.167,1.938c-0.7,0.666 -1.383,1.35 -2.05,2.05c-0.683,0.683 -1.333,1.399 -1.987,2.133c-0.634,0.733 -1.25,1.479 -1.854,2.246c-0.605,0.75 -1.171,1.529 -1.742,2.312c-0.554,0.796 -1.108,1.592 -1.629,2.409c-0.521,0.812 -1.025,1.625 -1.496,2.47c-0.471,0.85 -0.929,1.713 -1.367,2.592c-0.425,0.862 -0.845,1.725 -1.237,2.588c-0.392,0.895 -0.767,1.804 -1.121,2.716c-0.346,0.896 -0.671,1.792 -0.962,2.7c-0.309,0.929 -0.588,1.859 -0.846,2.8c-0.263,0.913 -0.488,1.842 -0.7,2.784c-0.213,0.945 -0.392,1.904 -0.538,2.866c-0.179,0.942 -0.308,1.905 -0.437,2.863c-0.15,0.962 -0.279,1.921 -0.375,2.9c-0.034,0.958 -0.034,1.904 -0,2.862c-0.017,0.376 -0.017,0.75 -0,1.125c-0.034,0.959 -0.034,1.905 -0,2.863c-0,0.308 0.016,0.621 0.033,0.929c0.096,0.958 0.225,1.904 0.371,2.863c0.116,0.979 0.246,1.971 0.392,2.945c0.179,0.963 0.391,1.904 0.621,2.867c0.162,0.846 0.341,1.691 0.533,2.537l-0,0.392c0.133,0.292 0.262,0.571 0.391,0.863c0.392,1.271 0.817,2.537 1.288,3.791c0.325,0.913 0.7,1.809 1.075,2.705c0.371,0.879 0.745,1.753 1.171,2.633c0.42,0.863 0.879,1.712 1.35,2.558c0.454,0.846 0.929,1.675 1.433,2.504c0.504,0.829 1.025,1.646 1.579,2.442c0.538,0.8 1.088,1.596 1.658,2.363c0.605,0.762 1.205,1.512 1.826,2.245c0.633,0.73 1.266,1.463 1.937,2.163c0.667,0.7 1.35,1.383 2.05,2.05c0.7,0.683 1.4,1.337 2.129,1.971c0.733,0.65 1.484,1.271 2.25,1.87c0.746,0.588 1.53,1.171 2.325,1.742c0.783,0.554 1.579,1.092 2.392,1.613c0.816,0.537 1.646,1.025 2.475,1.512c0.845,0.471 1.691,0.929 2.554,1.35c0.863,0.459 1.741,0.879 2.638,1.288c0.879,0.375 1.775,0.75 2.67,1.075c0.913,0.358 1.821,0.7 2.751,1.008c0.912,0.291 1.837,0.571 2.783,0.812c0.929,0.263 1.871,0.492 2.817,0.701c0.941,0.195 1.887,0.391 2.829,0.537c0.946,0.163 1.904,0.309 2.866,0.425c0.942,0.163 1.904,0.291 2.863,0.392c0.962,0.029 1.937,0.029 2.9,-0l1.12,-0c0.979,0.029 1.938,0.029 2.913,-0c0.296,-0 0.587,-0.017 0.879,-0.033c0.996,-0.101 1.971,-0.23 2.946,-0.376c0.962,-0.112 1.904,-0.245 2.867,-0.391c0.941,-0.196 1.887,-0.392 2.817,-0.617c0.878,-0.163 1.741,-0.342 2.604,-0.554l0.387,-0c0.279,-0.113 0.554,-0.246 0.85,-0.375c1.283,-0.392 2.571,-0.812 3.825,-1.287c0.892,-0.342 1.787,-0.701 2.667,-1.072c0.912,-0.391 1.791,-0.783 2.671,-1.204c0.862,-0.442 1.724,-0.879 2.553,-1.354c0.863,-0.454 1.692,-0.942 2.526,-1.429c0.829,-0.521 1.641,-1.041 2.437,-1.596c0.8,-0.537 1.579,-1.108 2.363,-1.692c0.762,-0.604 1.512,-1.208 2.246,-1.824c0.733,-0.617 1.449,-1.255 2.162,-1.905c0.7,-0.666 1.387,-1.35 2.054,-2.05c0.667,-0.683 1.333,-1.366 1.967,-2.083c0.637,-0.733 1.254,-1.484 1.858,-2.246c0.6,-0.766 1.188,-1.529 1.742,-2.329c0.566,-0.779 1.104,-1.579 1.625,-2.392c0.521,-0.812 1.025,-1.645 1.516,-2.475c0.471,-0.862 0.926,-1.725 1.35,-2.604c0.438,-0.846 0.846,-1.708 1.238,-2.588c0.387,-0.878 0.746,-1.774 1.087,-2.67c0.359,-0.908 0.684,-1.821 1.013,-2.75c0.292,-0.908 0.55,-1.821 0.796,-2.75c0.275,-0.929 0.521,-1.871 0.75,-2.817c0.191,-0.958 0.37,-1.904 0.537,-2.862c0.163,-0.963 0.309,-1.904 0.421,-2.867c0.163,-0.958 0.275,-1.933 0.392,-2.896c0.016,-0.958 0.016,-1.921 0,-2.862l0,-1.125c0.016,-0.992 0.016,-1.971 0,-2.946c-0.017,-0.292 -0.017,-0.605 -0.034,-0.896c-0.095,-0.975 -0.229,-1.954 -0.391,-2.946c-0.096,-0.941 -0.225,-1.904 -0.388,-2.846c-0.179,-0.962 -0.375,-1.92 -0.621,-2.866c-0.162,-0.863 -0.341,-1.709 -0.537,-2.555l0,-0.391c-0.129,-0.292 -0.258,-0.571 -0.391,-0.846c-0.371,-1.287 -0.797,-2.554 -1.267,-3.791c-0.342,-0.93 -0.7,-1.826 -1.092,-2.722c-0.359,-0.878 -0.75,-1.758 -1.154,-2.633c-0.442,-0.862 -0.879,-1.712 -1.355,-2.558c-0.454,-0.846 -0.941,-1.675 -1.428,-2.504c-0.521,-0.817 -1.042,-1.613 -1.596,-2.408c-0.538,-0.801 -1.109,-1.58 -1.692,-2.363c-0.588,-0.75 -1.204,-1.496 -1.825,-2.229c-0.633,-0.767 -1.271,-1.496 -1.937,-2.213c-0.667,-0.7 -1.351,-1.383 -2.051,-2.05c-0.699,-0.683 -1.399,-1.337 -2.133,-1.971c-0.729,-0.633 -1.479,-1.271 -2.246,-1.854c-0.746,-0.604 -1.529,-1.192 -2.308,-1.742c-0.817,-0.57 -1.612,-1.108 -2.441,-1.629c-0.817,-0.52 -1.646,-1.025 -2.475,-1.512c-0.846,-0.475 -1.692,-0.93 -2.555,-1.35c-0.879,-0.458 -1.741,-0.879 -2.637,-1.288c-0.879,-0.375 -1.776,-0.733 -2.671,-1.075c-0.896,-0.358 -1.804,-0.7 -2.717,-1.008c-0.912,-0.292 -1.842,-0.571 -2.783,-0.813c-0.929,-0.279 -1.871,-0.521 -2.817,-0.733c-0.941,-0.212 -1.887,-0.392 -2.833,-0.554c-0.959,-0.162 -1.934,-0.291 -2.896,-0.425c-0.958,-0.146 -1.904,-0.275 -2.863,-0.371c-0.979,-0.033 -1.937,-0.033 -2.916,-0c-0.359,-0.016 -0.713,-0.016 -1.071,-0l-0.033,-0Z" style="fill:#fff;fill-rule:nonzero;"/><path d="M6399.69,5061.7c-0.979,-0.033 -1.938,-0.033 -2.913,-0c-0.296,-0 -0.587,0.017 -0.879,0.017c-0.996,0.112 -1.971,0.241 -2.946,0.387c-0.962,0.117 -1.921,0.246 -2.867,0.392c-0.958,0.179 -1.92,0.392 -2.862,0.616c-0.862,0.167 -1.713,0.342 -2.559,0.538l-0.387,0c-0.279,0.133 -0.571,0.263 -0.85,0.392c-1.283,0.391 -2.538,0.813 -3.791,1.288c-0.897,0.325 -1.788,0.699 -2.667,1.074c-0.913,0.371 -1.792,0.78 -2.671,1.205c-0.862,0.42 -1.725,0.879 -2.554,1.35c-0.846,0.454 -1.692,0.924 -2.525,1.433c-0.813,0.504 -1.608,1.042 -2.392,1.591c-0.796,0.538 -1.596,1.109 -2.358,1.696c-0.767,0.584 -1.517,1.205 -2.246,1.821c-0.75,0.621 -1.467,1.271 -2.167,1.938c-0.7,0.666 -1.383,1.35 -2.05,2.05c-0.683,0.683 -1.333,1.399 -1.987,2.133c-0.634,0.733 -1.25,1.479 -1.854,2.246c-0.605,0.75 -1.171,1.529 -1.742,2.312c-0.554,0.796 -1.108,1.592 -1.629,2.409c-0.521,0.812 -1.025,1.625 -1.496,2.47c-0.471,0.85 -0.929,1.713 -1.367,2.592c-0.425,0.862 -0.845,1.725 -1.237,2.588c-0.392,0.895 -0.767,1.804 -1.121,2.716c-0.346,0.896 -0.671,1.792 -0.962,2.7c-0.309,0.929 -0.588,1.859 -0.846,2.8c-0.263,0.913 -0.488,1.842 -0.7,2.784c-0.213,0.945 -0.392,1.904 -0.538,2.866c-0.179,0.942 -0.308,1.905 -0.437,2.863c-0.15,0.962 -0.279,1.921 -0.375,2.9c-0.034,0.958 -0.034,1.904 -0,2.862c-0.017,0.376 -0.017,0.75 -0,1.125c-0.034,0.959 -0.034,1.905 -0,2.863c-0,0.308 0.016,0.621 0.033,0.929c0.096,0.958 0.225,1.904 0.371,2.863c0.116,0.979 0.246,1.971 0.392,2.945c0.179,0.963 0.391,1.904 0.621,2.867c0.162,0.846 0.341,1.691 0.533,2.537l-0,0.392c0.133,0.292 0.262,0.571 0.391,0.863c0.392,1.271 0.817,2.537 1.288,3.791c0.325,0.913 0.7,1.809 1.075,2.705c0.371,0.879 0.745,1.753 1.171,2.633c0.42,0.863 0.879,1.712 1.35,2.558c0.454,0.846 0.929,1.675 1.433,2.504c0.504,0.829 1.025,1.646 1.579,2.442c0.538,0.8 1.088,1.596 1.658,2.363c0.605,0.762 1.205,1.512 1.826,2.245c0.633,0.73 1.266,1.463 1.937,2.163c0.667,0.7 1.35,1.383 2.05,2.05c0.7,0.683 1.4,1.337 2.129,1.971c0.733,0.65 1.484,1.271 2.25,1.87c0.746,0.588 1.53,1.171 2.325,1.742c0.783,0.554 1.579,1.092 2.392,1.613c0.816,0.537 1.646,1.025 2.475,1.512c0.845,0.471 1.691,0.929 2.554,1.35c0.863,0.459 1.741,0.879 2.638,1.288c0.879,0.375 1.775,0.75 2.67,1.075c0.913,0.358 1.821,0.7 2.751,1.008c0.912,0.291 1.837,0.571 2.783,0.812c0.929,0.263 1.871,0.492 2.817,0.701c0.941,0.195 1.887,0.391 2.829,0.537c0.946,0.163 1.904,0.309 2.866,0.425c0.942,0.163 1.904,0.291 2.863,0.392c0.962,0.029 1.937,0.029 2.9,-0l1.12,-0c0.979,0.029 1.938,0.029 2.913,-0c0.296,-0 0.587,-0.017 0.879,-0.033c0.996,-0.101 1.971,-0.23 2.946,-0.376c0.962,-0.112 1.904,-0.245 2.867,-0.391c0.941,-0.196 1.887,-0.392 2.817,-0.617c0.878,-0.163 1.741,-0.342 2.604,-0.554l0.387,-0c0.279,-0.113 0.554,-0.246 0.85,-0.375c1.283,-0.392 2.571,-0.812 3.825,-1.287c0.892,-0.342 1.787,-0.701 2.667,-1.072c0.912,-0.391 1.791,-0.783 2.671,-1.204c0.862,-0.442 1.724,-0.879 2.553,-1.354c0.863,-0.454 1.692,-0.942 2.526,-1.429c0.829,-0.521 1.641,-1.041 2.437,-1.596c0.8,-0.537 1.579,-1.108 2.363,-1.692c0.762,-0.604 1.512,-1.208 2.246,-1.824c0.733,-0.617 1.449,-1.255 2.162,-1.905c0.7,-0.666 1.387,-1.35 2.054,-2.05c0.667,-0.683 1.333,-1.366 1.967,-2.083c0.637,-0.733 1.254,-1.484 1.858,-2.246c0.6,-0.766 1.188,-1.529 1.742,-2.329c0.566,-0.779 1.104,-1.579 1.625,-2.392c0.521,-0.812 1.025,-1.645 1.516,-2.475c0.471,-0.862 0.926,-1.725 1.35,-2.604c0.438,-0.846 0.846,-1.708 1.238,-2.588c0.387,-0.878 0.746,-1.774 1.087,-2.67c0.359,-0.908 0.684,-1.821 1.013,-2.75c0.292,-0.908 0.55,-1.821 0.796,-2.75c0.275,-0.929 0.521,-1.871 0.75,-2.817c0.191,-0.958 0.37,-1.904 0.537,-2.862c0.163,-0.963 0.309,-1.904 0.421,-2.867c0.163,-0.958 0.275,-1.933 0.392,-2.896c0.016,-0.958 0.016,-1.921 0,-2.862l0,-1.125c0.016,-0.992 0.016,-1.971 0,-2.946c-0.017,-0.292 -0.017,-0.605 -0.034,-0.896c-0.095,-0.975 -0.229,-1.954 -0.391,-2.946c-0.096,-0.941 -0.225,-1.904 -0.388,-2.846c-0.179,-0.962 -0.375,-1.92 -0.621,-2.866c-0.162,-0.863 -0.341,-1.709 -0.537,-2.555l0,-0.391c-0.129,-0.292 -0.258,-0.571 -0.391,-0.846c-0.371,-1.287 -0.797,-2.554 -1.267,-3.791c-0.342,-0.93 -0.7,-1.826 -1.092,-2.722c-0.359,-0.878 -0.75,-1.758 -1.154,-2.633c-0.442,-0.862 -0.879,-1.712 -1.355,-2.558c-0.454,-0.846 -0.941,-1.675 -1.428,-2.504c-0.521,-0.817 -1.042,-1.613 -1.596,-2.408c-0.538,-0.801 -1.109,-1.58 -1.692,-2.363c-0.588,-0.75 -1.204,-1.496 -1.825,-2.229c-0.633,-0.767 -1.271,-1.496 -1.937,-2.213c-0.667,-0.7 -1.351,-1.383 -2.051,-2.05c-0.699,-0.683 -1.399,-1.337 -2.133,-1.971c-0.729,-0.633 -1.479,-1.271 -2.246,-1.854c-0.746,-0.604 -1.529,-1.192 -2.308,-1.742c-0.817,-0.57 -1.612,-1.108 -2.441,-1.629c-0.817,-0.52 -1.646,-1.025 -2.475,-1.512c-0.846,-0.475 -1.692,-0.93 -2.555,-1.35c-0.879,-0.458 -1.741,-0.879 -2.637,-1.288c-0.879,-0.375 -1.776,-0.733 -2.671,-1.075c-0.896,-0.358 -1.804,-0.7 -2.717,-1.008c-0.912,-0.292 -1.842,-0.571 -2.783,-0.813c-0.929,-0.279 -1.871,-0.521 -2.817,-0.733c-0.941,-0.212 -1.887,-0.392 -2.833,-0.554c-0.959,-0.162 -1.934,-0.291 -2.896,-0.425c-0.958,-0.146 -1.904,-0.275 -2.863,-0.371c-0.979,-0.033 -1.937,-0.033 -2.916,-0c-0.359,-0.016 -0.713,-0.016 -1.071,-0l-0.033,-0Z" style="fill:#fff;fill-rule:nonzero;"/><path d="M6399.69,5061.7c-0.979,-0.033 -1.938,-0.033 -2.913,-0c-0.296,-0 -0.587,0.017 -0.879,0.017c-0.996,0.112 -1.971,0.241 -2.946,0.387c-0.962,0.117 -1.921,0.246 -2.867,0.392c-0.958,0.179 -1.92,0.392 -2.862,0.616c-0.862,0.167 -1.713,0.342 -2.559,0.538l-0.387,0c-0.279,0.133 -0.571,0.263 -0.85,0.392c-1.283,0.391 -2.538,0.813 -3.791,1.288c-0.897,0.325 -1.788,0.699 -2.667,1.074c-0.913,0.371 -1.792,0.78 -2.671,1.205c-0.862,0.42 -1.725,0.879 -2.554,1.35c-0.846,0.454 -1.692,0.924 -2.525,1.433c-0.813,0.504 -1.608,1.042 -2.392,1.591c-0.796,0.538 -1.596,1.109 -2.358,1.696c-0.767,0.584 -1.517,1.205 -2.246,1.821c-0.75,0.621 -1.467,1.271 -2.167,1.938c-0.7,0.666 -1.383,1.35 -2.05,2.05c-0.683,0.683 -1.333,1.399 -1.987,2.133c-0.634,0.733 -1.25,1.479 -1.854,2.246c-0.605,0.75 -1.171,1.529 -1.742,2.312c-0.554,0.796 -1.108,1.592 -1.629,2.409c-0.521,0.812 -1.025,1.625 -1.496,2.47c-0.471,0.85 -0.929,1.713 -1.367,2.592c-0.425,0.862 -0.845,1.725 -1.237,2.588c-0.392,0.895 -0.767,1.804 -1.121,2.716c-0.346,0.896 -0.671,1.792 -0.962,2.7c-0.309,0.929 -0.588,1.859 -0.846,2.8c-0.263,0.913 -0.488,1.842 -0.7,2.784c-0.213,0.945 -0.392,1.904 -0.538,2.866c-0.179,0.942 -0.308,1.905 -0.437,2.863c-0.15,0.962 -0.279,1.921 -0.375,2.9c-0.034,0.958 -0.034,1.904 -0,2.862c-0.017,0.376 -0.017,0.75 -0,1.125c-0.034,0.959 -0.034,1.905 -0,2.863c-0,0.308 0.016,0.621 0.033,0.929c0.096,0.958 0.225,1.904 0.371,2.863c0.116,0.979 0.246,1.971 0.392,2.945c0.179,0.963 0.391,1.904 0.621,2.867c0.162,0.846 0.341,1.691 0.533,2.537l-0,0.392c0.133,0.292 0.262,0.571 0.391,0.863c0.392,1.271 0.817,2.537 1.288,3.791c0.325,0.913 0.7,1.809 1.075,2.705c0.371,0.879 0.745,1.753 1.171,2.633c0.42,0.863 0.879,1.712 1.35,2.558c0.454,0.846 0.929,1.675 1.433,2.504c0.504,0.829 1.025,1.646 1.579,2.442c0.538,0.8 1.088,1.596 1.658,2.363c0.605,0.762 1.205,1.512 1.826,2.245c0.633,0.73 1.266,1.463 1.937,2.163c0.667,0.7 1.35,1.383 2.05,2.05c0.7,0.683 1.4,1.337 2.129,1.971c0.733,0.65 1.484,1.271 2.25,1.87c0.746,0.588 1.53,1.171 2.325,1.742c0.783,0.554 1.579,1.092 2.392,1.613c0.816,0.537 1.646,1.025 2.475,1.512c0.845,0.471 1.691,0.929 2.554,1.35c0.863,0.459 1.741,0.879 2.638,1.288c0.879,0.375 1.775,0.75 2.67,1.075c0.913,0.358 1.821,0.7 2.751,1.008c0.912,0.291 1.837,0.571 2.783,0.812c0.929,0.263 1.871,0.492 2.817,0.701c0.941,0.195 1.887,0.391 2.829,0.537c0.946,0.163 1.904,0.309 2.866,0.425c0.942,0.163 1.904,0.291 2.863,0.392c0.962,0.029 1.937,0.029 2.9,-0l1.12,-0c0.979,0.029 1.938,0.029 2.913,-0c0.296,-0 0.587,-0.017 0.879,-0.033c0.996,-0.101 1.971,-0.23 2.946,-0.376c0.962,-0.112 1.904,-0.245 2.867,-0.391c0.941,-0.196 1.887,-0.392 2.817,-0.617c0.878,-0.163 1.741,-0.342 2.604,-0.554l0.387,-0c0.279,-0.113 0.554,-0.246 0.85,-0.375c1.283,-0.392 2.571,-0.812 3.825,-1.287c0.892,-0.342 1.787,-0.701 2.667,-1.072c0.912,-0.391 1.791,-0.783 2.671,-1.204c0.862,-0.442 1.724,-0.879 2.553,-1.354c0.863,-0.454 1.692,-0.942 2.526,-1.429c0.829,-0.521 1.641,-1.041 2.437,-1.596c0.8,-0.537 1.579,-1.108 2.363,-1.692c0.762,-0.604 1.512,-1.208 2.246,-1.824c0.733,-0.617 1.449,-1.255 2.162,-1.905c0.7,-0.666 1.387,-1.35 2.054,-2.05c0.667,-0.683 1.333,-1.366 1.967,-2.083c0.637,-0.733 1.254,-1.484 1.858,-2.246c0.6,-0.766 1.188,-1.529 1.742,-2.329c0.566,-0.779 1.104,-1.579 1.625,-2.392c0.521,-0.812 1.025,-1.645 1.516,-2.475c0.471,-0.862 0.926,-1.725 1.35,-2.604c0.438,-0.846 0.846,-1.708 1.238,-2.588c0.387,-0.878 0.746,-1.774 1.087,-2.67c0.359,-0.908 0.684,-1.821 1.013,-2.75c0.292,-0.908 0.55,-1.821 0.796,-2.75c0.275,-0.929 0.521,-1.871 0.75,-2.817c0.191,-0.958 0.37,-1.904 0.537,-2.862c0.163,-0.963 0.309,-1.904 0.421,-2.867c0.163,-0.958 0.275,-1.933 0.392,-2.896c0.016,-0.958 0.016,-1.921 0,-2.862l0,-1.125c0.016,-0.992 0.016,-1.971 0,-2.946c-0.017,-0.292 -0.017,-0.605 -0.034,-0.896c-0.095,-0.975 -0.229,-1.954 -0.391,-2.946c-0.096,-0.941 -0.225,-1.904 -0.388,-2.846c-0.179,-0.962 -0.375,-1.92 -0.621,-2.866c-0.162,-0.863 -0.341,-1.709 -0.537,-2.555l0,-0.391c-0.129,-0.292 -0.258,-0.571 -0.391,-0.846c-0.371,-1.287 -0.797,-2.554 -1.267,-3.791c-0.342,-0.93 -0.7,-1.826 -1.092,-2.722c-0.359,-0.878 -0.75,-1.758 -1.154,-2.633c-0.442,-0.862 -0.879,-1.712 -1.355,-2.558c-0.454,-0.846 -0.941,-1.675 -1.428,-2.504c-0.521,-0.817 -1.042,-1.613 -1.596,-2.408c-0.538,-0.801 -1.109,-1.58 -1.692,-2.363c-0.588,-0.75 -1.204,-1.496 -1.825,-2.229c-0.633,-0.767 -1.271,-1.496 -1.937,-2.213c-0.667,-0.7 -1.351,-1.383 -2.051,-2.05c-0.699,-0.683 -1.399,-1.337 -2.133,-1.971c-0.729,-0.633 -1.479,-1.271 -2.246,-1.854c-0.746,-0.604 -1.529,-1.192 -2.308,-1.742c-0.817,-0.57 -1.612,-1.108 -2.441,-1.629c-0.817,-0.52 -1.646,-1.025 -2.475,-1.512c-0.846,-0.475 -1.692,-0.93 -2.555,-1.35c-0.879,-0.458 -1.741,-0.879 -2.637,-1.288c-0.879,-0.375 -1.776,-0.733 -2.671,-1.075c-0.896,-0.358 -1.804,-0.7 -2.717,-1.008c-0.912,-0.292 -1.842,-0.571 -2.783,-0.813c-0.929,-0.279 -1.871,-0.521 -2.817,-0.733c-0.941,-0.212 -1.887,-0.392 -2.833,-0.554c-0.959,-0.162 -1.934,-0.291 -2.896,-0.425c-0.958,-0.146 -1.904,-0.275 -2.863,-0.371c-0.979,-0.033 -1.937,-0.033 -2.916,-0c-0.359,-0.016 -0.713,-0.016 -1.071,-0l-0.033,-0Z" style="fill:#fff;fill-rule:nonzero;"/><path d="M6399.69,5061.7c-0.979,-0.033 -1.938,-0.033 -2.913,-0c-0.296,-0 -0.587,0.017 -0.879,0.017c-0.996,0.112 -1.971,0.241 -2.946,0.387c-0.962,0.117 -1.921,0.246 -2.867,0.392c-0.958,0.179 -1.92,0.392 -2.862,0.616c-0.862,0.167 -1.713,0.342 -2.559,0.538l-0.387,0c-0.279,0.133 -0.571,0.263 -0.85,0.392c-1.283,0.391 -2.538,0.813 -3.791,1.288c-0.897,0.325 -1.788,0.699 -2.667,1.074c-0.913,0.371 -1.792,0.78 -2.671,1.205c-0.862,0.42 -1.725,0.879 -2.554,1.35c-0.846,0.454 -1.692,0.924 -2.525,1.433c-0.813,0.504 -1.608,1.042 -2.392,1.591c-0.796,0.538 -1.596,1.109 -2.358,1.696c-0.767,0.584 -1.517,1.205 -2.246,1.821c-0.75,0.621 -1.467,1.271 -2.167,1.938c-0.7,0.666 -1.383,1.35 -2.05,2.05c-0.683,0.683 -1.333,1.399 -1.987,2.133c-0.634,0.733 -1.25,1.479 -1.854,2.246c-0.605,0.75 -1.171,1.529 -1.742,2.312c-0.554,0.796 -1.108,1.592 -1.629,2.409c-0.521,0.812 -1.025,1.625 -1.496,2.47c-0.471,0.85 -0.929,1.713 -1.367,2.592c-0.425,0.862 -0.845,1.725 -1.237,2.588c-0.392,0.895 -0.767,1.804 -1.121,2.716c-0.346,0.896 -0.671,1.792 -0.962,2.7c-0.309,0.929 -0.588,1.859 -0.846,2.8c-0.263,0.913 -0.488,1.842 -0.7,2.784c-0.213,0.945 -0.392,1.904 -0.538,2.866c-0.179,0.942 -0.308,1.905 -0.437,2.863c-0.15,0.962 -0.279,1.921 -0.375,2.9c-0.034,0.958 -0.034,1.904 -0,2.862c-0.017,0.376 -0.017,0.75 -0,1.125c-0.034,0.959 -0.034,1.905 -0,2.863c-0,0.308 0.016,0.621 0.033,0.929c0.096,0.958 0.225,1.904 0.371,2.863c0.116,0.979 0.246,1.971 0.392,2.945c0.179,0.963 0.391,1.904 0.621,2.867c0.162,0.846 0.341,1.691 0.533,2.537l-0,0.392c0.133,0.292 0.262,0.571 0.391,0.863c0.392,1.271 0.817,2.537 1.288,3.791c0.325,0.913 0.7,1.809 1.075,2.705c0.371,0.879 0.745,1.753 1.171,2.633c0.42,0.863 0.879,1.712 1.35,2.558c0.454,0.846 0.929,1.675 1.433,2.504c0.504,0.829 1.025,1.646 1.579,2.442c0.538,0.8 1.088,1.596 1.658,2.363c0.605,0.762 1.205,1.512 1.826,2.245c0.633,0.73 1.266,1.463 1.937,2.163c0.667,0.7 1.35,1.383 2.05,2.05c0.7,0.683 1.4,1.337 2.129,1.971c0.733,0.65 1.484,1.271 2.25,1.87c0.746,0.588 1.53,1.171 2.325,1.742c0.783,0.554 1.579,1.092 2.392,1.613c0.816,0.537 1.646,1.025 2.475,1.512c0.845,0.471 1.691,0.929 2.554,1.35c0.863,0.459 1.741,0.879 2.638,1.288c0.879,0.375 1.775,0.75 2.67,1.075c0.913,0.358 1.821,0.7 2.751,1.008c0.912,0.291 1.837,0.571 2.783,0.812c0.929,0.263 1.871,0.492 2.817,0.701c0.941,0.195 1.887,0.391 2.829,0.537c0.946,0.163 1.904,0.309 2.866,0.425c0.942,0.163 1.904,0.291 2.863,0.392c0.962,0.029 1.937,0.029 2.9,-0l1.12,-0c0.979,0.029 1.938,0.029 2.913,-0c0.296,-0 0.587,-0.017 0.879,-0.033c0.996,-0.101 1.971,-0.23 2.946,-0.376c0.962,-0.112 1.904,-0.245 2.867,-0.391c0.941,-0.196 1.887,-0.392 2.817,-0.617c0.878,-0.163 1.741,-0.342 2.604,-0.554l0.387,-0c0.279,-0.113 0.554,-0.246 0.85,-0.375c1.283,-0.392 2.571,-0.812 3.825,-1.287c0.892,-0.342 1.787,-0.701 2.667,-1.072c0.912,-0.391 1.791,-0.783 2.671,-1.204c0.862,-0.442 1.724,-0.879 2.553,-1.354c0.863,-0.454 1.692,-0.942 2.526,-1.429c0.829,-0.521 1.641,-1.041 2.437,-1.596c0.8,-0.537 1.579,-1.108 2.363,-1.692c0.762,-0.604 1.512,-1.208 2.246,-1.824c0.733,-0.617 1.449,-1.255 2.162,-1.905c0.7,-0.666 1.387,-1.35 2.054,-2.05c0.667,-0.683 1.333,-1.366 1.967,-2.083c0.637,-0.733 1.254,-1.484 1.858,-2.246c0.6,-0.766 1.188,-1.529 1.742,-2.329c0.566,-0.779 1.104,-1.579 1.625,-2.392c0.521,-0.812 1.025,-1.645 1.516,-2.475c0.471,-0.862 0.926,-1.725 1.35,-2.604c0.438,-0.846 0.846,-1.708 1.238,-2.588c0.387,-0.878 0.746,-1.774 1.087,-2.67c0.359,-0.908 0.684,-1.821 1.013,-2.75c0.292,-0.908 0.55,-1.821 0.796,-2.75c0.275,-0.929 0.521,-1.871 0.75,-2.817c0.191,-0.958 0.37,-1.904 0.537,-2.862c0.163,-0.963 0.309,-1.904 0.421,-2.867c0.163,-0.958 0.275,-1.933 0.392,-2.896c0.016,-0.958 0.016,-1.921 0,-2.862l0,-1.125c0.016,-0.992 0.016,-1.971 0,-2.946c-0.017,-0.292 -0.017,-0.605 -0.034,-0.896c-0.095,-0.975 -0.229,-1.954 -0.391,-2.946c-0.096,-0.941 -0.225,-1.904 -0.388,-2.846c-0.179,-0.962 -0.375,-1.92 -0.621,-2.866c-0.162,-0.863 -0.341,-1.709 -0.537,-2.555l0,-0.391c-0.129,-0.292 -0.258,-0.571 -0.391,-0.846c-0.371,-1.287 -0.797,-2.554 -1.267,-3.791c-0.342,-0.93 -0.7,-1.826 -1.092,-2.722c-0.359,-0.878 -0.75,-1.758 -1.154,-2.633c-0.442,-0.862 -0.879,-1.712 -1.355,-2.558c-0.454,-0.846 -0.941,-1.675 -1.428,-2.504c-0.521,-0.817 -1.042,-1.613 -1.596,-2.408c-0.538,-0.801 -1.109,-1.58 -1.692,-2.363c-0.588,-0.75 -1.204,-1.496 -1.825,-2.229c-0.633,-0.767 -1.271,-1.496 -1.937,-2.213c-0.667,-0.7 -1.351,-1.383 -2.051,-2.05c-0.699,-0.683 -1.399,-1.337 -2.133,-1.971c-0.729,-0.633 -1.479,-1.271 -2.246,-1.854c-0.746,-0.604 -1.529,-1.192 -2.308,-1.742c-0.817,-0.57 -1.612,-1.108 -2.441,-1.629c-0.817,-0.52 -1.646,-1.025 -2.475,-1.512c-0.846,-0.475 -1.692,-0.93 -2.555,-1.35c-0.879,-0.458 -1.741,-0.879 -2.637,-1.288c-0.879,-0.375 -1.776,-0.733 -2.671,-1.075c-0.896,-0.358 -1.804,-0.7 -2.717,-1.008c-0.912,-0.292 -1.842,-0.571 -2.783,-0.813c-0.929,-0.279 -1.871,-0.521 -2.817,-0.733c-0.941,-0.212 -1.887,-0.392 -2.833,-0.554c-0.959,-0.162 -1.934,-0.291 -2.896,-0.425c-0.958,-0.146 -1.904,-0.275 -2.863,-0.371c-0.979,-0.033 -1.937,-0.033 -2.916,-0c-0.359,-0.016 -0.713,-0.016 -1.071,-0l-0.033,-0Z" style="fill:#fff;fill-rule:nonzero;"/><path d="M6399.69,5061.7c-0.979,-0.033 -1.938,-0.033 -2.913,-0c-0.296,-0 -0.587,0.017 -0.879,0.017c-0.996,0.112 -1.971,0.241 -2.946,0.387c-0.962,0.117 -1.921,0.246 -2.867,0.392c-0.958,0.179 -1.92,0.392 -2.862,0.616c-0.862,0.167 -1.713,0.342 -2.559,0.538l-0.387,0c-0.279,0.133 -0.571,0.263 -0.85,0.392c-1.283,0.391 -2.538,0.813 -3.791,1.288c-0.897,0.325 -1.788,0.699 -2.667,1.074c-0.913,0.371 -1.792,0.78 -2.671,1.205c-0.862,0.42 -1.725,0.879 -2.554,1.35c-0.846,0.454 -1.692,0.924 -2.525,1.433c-0.813,0.504 -1.608,1.042 -2.392,1.591c-0.796,0.538 -1.596,1.109 -2.358,1.696c-0.767,0.584 -1.517,1.205 -2.246,1.821c-0.75,0.621 -1.467,1.271 -2.167,1.938c-0.7,0.666 -1.383,1.35 -2.05,2.05c-0.683,0.683 -1.333,1.399 -1.987,2.133c-0.634,0.733 -1.25,1.479 -1.854,2.246c-0.605,0.75 -1.171,1.529 -1.742,2.312c-0.554,0.796 -1.108,1.592 -1.629,2.409c-0.521,0.812 -1.025,1.625 -1.496,2.47c-0.471,0.85 -0.929,1.713 -1.367,2.592c-0.425,0.862 -0.845,1.725 -1.237,2.588c-0.392,0.895 -0.767,1.804 -1.121,2.716c-0.346,0.896 -0.671,1.792 -0.962,2.7c-0.309,0.929 -0.588,1.859 -0.846,2.8c-0.263,0.913 -0.488,1.842 -0.7,2.784c-0.213,0.945 -0.392,1.904 -0.538,2.866c-0.179,0.942 -0.308,1.905 -0.437,2.863c-0.15,0.962 -0.279,1.921 -0.375,2.9c-0.034,0.958 -0.034,1.904 -0,2.862c-0.017,0.376 -0.017,0.75 -0,1.125c-0.034,0.959 -0.034,1.905 -0,2.863c-0,0.308 0.016,0.621 0.033,0.929c0.096,0.958 0.225,1.904 0.371,2.863c0.116,0.979 0.246,1.971 0.392,2.945c0.179,0.963 0.391,1.904 0.621,2.867c0.162,0.846 0.341,1.691 0.533,2.537l-0,0.392c0.133,0.292 0.262,0.571 0.391,0.863c0.392,1.271 0.817,2.537 1.288,3.791c0.325,0.913 0.7,1.809 1.075,2.705c0.371,0.879 0.745,1.753 1.171,2.633c0.42,0.863 0.879,1.712 1.35,2.558c0.454,0.846 0.929,1.675 1.433,2.504c0.504,0.829 1.025,1.646 1.579,2.442c0.538,0.8 1.088,1.596 1.658,2.363c0.605,0.762 1.205,1.512 1.826,2.245c0.633,0.73 1.266,1.463 1.937,2.163c0.667,0.7 1.35,1.383 2.05,2.05c0.7,0.683 1.4,1.337 2.129,1.971c0.733,0.65 1.484,1.271 2.25,1.87c0.746,0.588 1.53,1.171 2.325,1.742c0.783,0.554 1.579,1.092 2.392,1.613c0.816,0.537 1.646,1.025 2.475,1.512c0.845,0.471 1.691,0.929 2.554,1.35c0.863,0.459 1.741,0.879 2.638,1.288c0.879,0.375 1.775,0.75 2.67,1.075c0.913,0.358 1.821,0.7 2.751,1.008c0.912,0.291 1.837,0.571 2.783,0.812c0.929,0.263 1.871,0.492 2.817,0.701c0.941,0.195 1.887,0.391 2.829,0.537c0.946,0.163 1.904,0.309 2.866,0.425c0.942,0.163 1.904,0.291 2.863,0.392c0.962,0.029 1.937,0.029 2.9,-0l1.12,-0c0.979,0.029 1.938,0.029 2.913,-0c0.296,-0 0.587,-0.017 0.879,-0.033c0.996,-0.101 1.971,-0.23 2.946,-0.376c0.962,-0.112 1.904,-0.245 2.867,-0.391c0.941,-0.196 1.887,-0.392 2.817,-0.617c0.878,-0.163 1.741,-0.342 2.604,-0.554l0.387,-0c0.279,-0.113 0.554,-0.246 0.85,-0.375c1.283,-0.392 2.571,-0.812 3.825,-1.287c0.892,-0.342 1.787,-0.701 2.667,-1.072c0.912,-0.391 1.791,-0.783 2.671,-1.204c0.862,-0.442 1.724,-0.879 2.553,-1.354c0.863,-0.454 1.692,-0.942 2.526,-1.429c0.829,-0.521 1.641,-1.041 2.437,-1.596c0.8,-0.537 1.579,-1.108 2.363,-1.692c0.762,-0.604 1.512,-1.208 2.246,-1.824c0.733,-0.617 1.449,-1.255 2.162,-1.905c0.7,-0.666 1.387,-1.35 2.054,-2.05c0.667,-0.683 1.333,-1.366 1.967,-2.083c0.637,-0.733 1.254,-1.484 1.858,-2.246c0.6,-0.766 1.188,-1.529 1.742,-2.329c0.566,-0.779 1.104,-1.579 1.625,-2.392c0.521,-0.812 1.025,-1.645 1.516,-2.475c0.471,-0.862 0.926,-1.725 1.35,-2.604c0.438,-0.846 0.846,-1.708 1.238,-2.588c0.387,-0.878 0.746,-1.774 1.087,-2.67c0.359,-0.908 0.684,-1.821 1.013,-2.75c0.292,-0.908 0.55,-1.821 0.796,-2.75c0.275,-0.929 0.521,-1.871 0.75,-2.817c0.191,-0.958 0.37,-1.904 0.537,-2.862c0.163,-0.963 0.309,-1.904 0.421,-2.867c0.163,-0.958 0.275,-1.933 0.392,-2.896c0.016,-0.958 0.016,-1.921 0,-2.862l0,-1.125c0.016,-0.992 0.016,-1.971 0,-2.946c-0.017,-0.292 -0.017,-0.605 -0.034,-0.896c-0.095,-0.975 -0.229,-1.954 -0.391,-2.946c-0.096,-0.941 -0.225,-1.904 -0.388,-2.846c-0.179,-0.962 -0.375,-1.92 -0.621,-2.866c-0.162,-0.863 -0.341,-1.709 -0.537,-2.555l0,-0.391c-0.129,-0.292 -0.258,-0.571 -0.391,-0.846c-0.371,-1.287 -0.797,-2.554 -1.267,-3.791c-0.342,-0.93 -0.7,-1.826 -1.092,-2.722c-0.359,-0.878 -0.75,-1.758 -1.154,-2.633c-0.442,-0.862 -0.879,-1.712 -1.355,-2.558c-0.454,-0.846 -0.941,-1.675 -1.428,-2.504c-0.521,-0.817 -1.042,-1.613 -1.596,-2.408c-0.538,-0.801 -1.109,-1.58 -1.692,-2.363c-0.588,-0.75 -1.204,-1.496 -1.825,-2.229c-0.633,-0.767 -1.271,-1.496 -1.937,-2.213c-0.667,-0.7 -1.351,-1.383 -2.051,-2.05c-0.699,-0.683 -1.399,-1.337 -2.133,-1.971c-0.729,-0.633 -1.479,-1.271 -2.246,-1.854c-0.746,-0.604 -1.529,-1.192 -2.308,-1.742c-0.817,-0.57 -1.612,-1.108 -2.441,-1.629c-0.817,-0.52 -1.646,-1.025 -2.475,-1.512c-0.846,-0.475 -1.692,-0.93 -2.555,-1.35c-0.879,-0.458 -1.741,-0.879 -2.637,-1.288c-0.879,-0.375 -1.776,-0.733 -2.671,-1.075c-0.896,-0.358 -1.804,-0.7 -2.717,-1.008c-0.912,-0.292 -1.842,-0.571 -2.783,-0.813c-0.929,-0.279 -1.871,-0.521 -2.817,-0.733c-0.941,-0.212 -1.887,-0.392 -2.833,-0.554c-0.959,-0.162 -1.934,-0.291 -2.896,-0.425c-0.958,-0.146 -1.904,-0.275 -2.863,-0.371c-0.979,-0.033 -1.937,-0.033 -2.916,-0c-0.359,-0.016 -0.713,-0.016 -1.071,-0l-0.033,-0Z" style="fill:#fff;fill-rule:nonzero;"/><path d="M6399.69,5061.7c-0.979,-0.033 -1.938,-0.033 -2.913,-0c-0.296,-0 -0.587,0.017 -0.879,0.017c-0.996,0.112 -1.971,0.241 -2.946,0.387c-0.962,0.117 -1.921,0.246 -2.867,0.392c-0.958,0.179 -1.92,0.392 -2.862,0.616c-0.862,0.167 -1.713,0.342 -2.559,0.538l-0.387,0c-0.279,0.133 -0.571,0.263 -0.85,0.392c-1.283,0.391 -2.538,0.813 -3.791,1.288c-0.897,0.325 -1.788,0.699 -2.667,1.074c-0.913,0.371 -1.792,0.78 -2.671,1.205c-0.862,0.42 -1.725,0.879 -2.554,1.35c-0.846,0.454 -1.692,0.924 -2.525,1.433c-0.813,0.504 -1.608,1.042 -2.392,1.591c-0.796,0.538 -1.596,1.109 -2.358,1.696c-0.767,0.584 -1.517,1.205 -2.246,1.821c-0.75,0.621 -1.467,1.271 -2.167,1.938c-0.7,0.666 -1.383,1.35 -2.05,2.05c-0.683,0.683 -1.333,1.399 -1.987,2.133c-0.634,0.733 -1.25,1.479 -1.854,2.246c-0.605,0.75 -1.171,1.529 -1.742,2.312c-0.554,0.796 -1.108,1.592 -1.629,2.409c-0.521,0.812 -1.025,1.625 -1.496,2.47c-0.471,0.85 -0.929,1.713 -1.367,2.592c-0.425,0.862 -0.845,1.725 -1.237,2.588c-0.392,0.895 -0.767,1.804 -1.121,2.716c-0.346,0.896 -0.671,1.792 -0.962,2.7c-0.309,0.929 -0.588,1.859 -0.846,2.8c-0.263,0.913 -0.488,1.842 -0.7,2.784c-0.213,0.945 -0.392,1.904 -0.538,2.866c-0.179,0.942 -0.308,1.905 -0.437,2.863c-0.15,0.962 -0.279,1.921 -0.375,2.9c-0.034,0.958 -0.034,1.904 -0,2.862c-0.017,0.376 -0.017,0.75 -0,1.125c-0.034,0.959 -0.034,1.905 -0,2.863c-0,0.308 0.016,0.621 0.033,0.929c0.096,0.958 0.225,1.904 0.371,2.863c0.116,0.979 0.246,1.971 0.392,2.945c0.179,0.963 0.391,1.904 0.621,2.867c0.162,0.846 0.341,1.691 0.533,2.537l-0,0.392c0.133,0.292 0.262,0.571 0.391,0.863c0.392,1.271 0.817,2.537 1.288,3.791c0.325,0.913 0.7,1.809 1.075,2.705c0.371,0.879 0.745,1.753 1.171,2.633c0.42,0.863 0.879,1.712 1.35,2.558c0.454,0.846 0.929,1.675 1.433,2.504c0.504,0.829 1.025,1.646 1.579,2.442c0.538,0.8 1.088,1.596 1.658,2.363c0.605,0.762 1.205,1.512 1.826,2.245c0.633,0.73 1.266,1.463 1.937,2.163c0.667,0.7 1.35,1.383 2.05,2.05c0.7,0.683 1.4,1.337 2.129,1.971c0.733,0.65 1.484,1.271 2.25,1.87c0.746,0.588 1.53,1.171 2.325,1.742c0.783,0.554 1.579,1.092 2.392,1.613c0.816,0.537 1.646,1.025 2.475,1.512c0.845,0.471 1.691,0.929 2.554,1.35c0.863,0.459 1.741,0.879 2.638,1.288c0.879,0.375 1.775,0.75 2.67,1.075c0.913,0.358 1.821,0.7 2.751,1.008c0.912,0.291 1.837,0.571 2.783,0.812c0.929,0.263 1.871,0.492 2.817,0.701c0.941,0.195 1.887,0.391 2.829,0.537c0.946,0.163 1.904,0.309 2.866,0.425c0.942,0.163 1.904,0.291 2.863,0.392c0.962,0.029 1.937,0.029 2.9,-0l1.12,-0c0.979,0.029 1.938,0.029 2.913,-0c0.296,-0 0.587,-0.017 0.879,-0.033c0.996,-0.101 1.971,-0.23 2.946,-0.376c0.962,-0.112 1.904,-0.245 2.867,-0.391c0.941,-0.196 1.887,-0.392 2.817,-0.617c0.878,-0.163 1.741,-0.342 2.604,-0.554l0.387,-0c0.279,-0.113 0.554,-0.246 0.85,-0.375c1.283,-0.392 2.571,-0.812 3.825,-1.287c0.892,-0.342 1.787,-0.701 2.667,-1.072c0.912,-0.391 1.791,-0.783 2.671,-1.204c0.862,-0.442 1.724,-0.879 2.553,-1.354c0.863,-0.454 1.692,-0.942 2.526,-1.429c0.829,-0.521 1.641,-1.041 2.437,-1.596c0.8,-0.537 1.579,-1.108 2.363,-1.692c0.762,-0.604 1.512,-1.208 2.246,-1.824c0.733,-0.617 1.449,-1.255 2.162,-1.905c0.7,-0.666 1.387,-1.35 2.054,-2.05c0.667,-0.683 1.333,-1.366 1.967,-2.083c0.637,-0.733 1.254,-1.484 1.858,-2.246c0.6,-0.766 1.188,-1.529 1.742,-2.329c0.566,-0.779 1.104,-1.579 1.625,-2.392c0.521,-0.812 1.025,-1.645 1.516,-2.475c0.471,-0.862 0.926,-1.725 1.35,-2.604c0.438,-0.846 0.846,-1.708 1.238,-2.588c0.387,-0.878 0.746,-1.774 1.087,-2.67c0.359,-0.908 0.684,-1.821 1.013,-2.75c0.292,-0.908 0.55,-1.821 0.796,-2.75c0.275,-0.929 0.521,-1.871 0.75,-2.817c0.191,-0.958 0.37,-1.904 0.537,-2.862c0.163,-0.963 0.309,-1.904 0.421,-2.867c0.163,-0.958 0.275,-1.933 0.392,-2.896c0.016,-0.958 0.016,-1.921 0,-2.862l0,-1.125c0.016,-0.992 0.016,-1.971 0,-2.946c-0.017,-0.292 -0.017,-0.605 -0.034,-0.896c-0.095,-0.975 -0.229,-1.954 -0.391,-2.946c-0.096,-0.941 -0.225,-1.904 -0.388,-2.846c-0.179,-0.962 -0.375,-1.92 -0.621,-2.866c-0.162,-0.863 -0.341,-1.709 -0.537,-2.555l0,-0.391c-0.129,-0.292 -0.258,-0.571 -0.391,-0.846c-0.371,-1.287 -0.797,-2.554 -1.267,-3.791c-0.342,-0.93 -0.7,-1.826 -1.092,-2.722c-0.359,-0.878 -0.75,-1.758 -1.154,-2.633c-0.442,-0.862 -0.879,-1.712 -1.355,-2.558c-0.454,-0.846 -0.941,-1.675 -1.428,-2.504c-0.521,-0.817 -1.042,-1.613 -1.596,-2.408c-0.538,-0.801 -1.109,-1.58 -1.692,-2.363c-0.588,-0.75 -1.204,-1.496 -1.825,-2.229c-0.633,-0.767 -1.271,-1.496 -1.937,-2.213c-0.667,-0.7 -1.351,-1.383 -2.051,-2.05c-0.699,-0.683 -1.399,-1.337 -2.133,-1.971c-0.729,-0.633 -1.479,-1.271 -2.246,-1.854c-0.746,-0.604 -1.529,-1.192 -2.308,-1.742c-0.817,-0.57 -1.612,-1.108 -2.441,-1.629c-0.817,-0.52 -1.646,-1.025 -2.475,-1.512c-0.846,-0.475 -1.692,-0.93 -2.555,-1.35c-0.879,-0.458 -1.741,-0.879 -2.637,-1.288c-0.879,-0.375 -1.776,-0.733 -2.671,-1.075c-0.896,-0.358 -1.804,-0.7 -2.717,-1.008c-0.912,-0.292 -1.842,-0.571 -2.783,-0.813c-0.929,-0.279 -1.871,-0.521 -2.817,-0.733c-0.941,-0.212 -1.887,-0.392 -2.833,-0.554c-0.959,-0.162 -1.934,-0.291 -2.896,-0.425c-0.958,-0.146 -1.904,-0.275 -2.863,-0.371c-0.979,-0.033 -1.937,-0.033 -2.916,-0c-0.359,-0.016 -0.713,-0.016 -1.071,-0l-0.033,-0Z" style="fill:#fff;fill-rule:nonzero;"/><path d="M6399.69,5061.7c-0.979,-0.033 -1.938,-0.033 -2.913,-0c-0.296,-0 -0.587,0.017 -0.879,0.017c-0.996,0.112 -1.971,0.241 -2.946,0.387c-0.962,0.117 -1.921,0.246 -2.867,0.392c-0.958,0.179 -1.92,0.392 -2.862,0.616c-0.862,0.167 -1.713,0.342 -2.559,0.538l-0.387,0c-0.279,0.133 -0.571,0.263 -0.85,0.392c-1.283,0.391 -2.538,0.813 -3.791,1.288c-0.897,0.325 -1.788,0.699 -2.667,1.074c-0.913,0.371 -1.792,0.78 -2.671,1.205c-0.862,0.42 -1.725,0.879 -2.554,1.35c-0.846,0.454 -1.692,0.924 -2.525,1.433c-0.813,0.504 -1.608,1.042 -2.392,1.591c-0.796,0.538 -1.596,1.109 -2.358,1.696c-0.767,0.584 -1.517,1.205 -2.246,1.821c-0.75,0.621 -1.467,1.271 -2.167,1.938c-0.7,0.666 -1.383,1.35 -2.05,2.05c-0.683,0.683 -1.333,1.399 -1.987,2.133c-0.634,0.733 -1.25,1.479 -1.854,2.246c-0.605,0.75 -1.171,1.529 -1.742,2.312c-0.554,0.796 -1.108,1.592 -1.629,2.409c-0.521,0.812 -1.025,1.625 -1.496,2.47c-0.471,0.85 -0.929,1.713 -1.367,2.592c-0.425,0.862 -0.845,1.725 -1.237,2.588c-0.392,0.895 -0.767,1.804 -1.121,2.716c-0.346,0.896 -0.671,1.792 -0.962,2.7c-0.309,0.929 -0.588,1.859 -0.846,2.8c-0.263,0.913 -0.488,1.842 -0.7,2.784c-0.213,0.945 -0.392,1.904 -0.538,2.866c-0.179,0.942 -0.308,1.905 -0.437,2.863c-0.15,0.962 -0.279,1.921 -0.375,2.9c-0.034,0.958 -0.034,1.904 -0,2.862c-0.017,0.376 -0.017,0.75 -0,1.125c-0.034,0.959 -0.034,1.905 -0,2.863c-0,0.308 0.016,0.621 0.033,0.929c0.096,0.958 0.225,1.904 0.371,2.863c0.116,0.979 0.246,1.971 0.392,2.945c0.179,0.963 0.391,1.904 0.621,2.867c0.162,0.846 0.341,1.691 0.533,2.537l-0,0.392c0.133,0.292 0.262,0.571 0.391,0.863c0.392,1.271 0.817,2.537 1.288,3.791c0.325,0.913 0.7,1.809 1.075,2.705c0.371,0.879 0.745,1.753 1.171,2.633c0.42,0.863 0.879,1.712 1.35,2.558c0.454,0.846 0.929,1.675 1.433,2.504c0.504,0.829 1.025,1.646 1.579,2.442c0.538,0.8 1.088,1.596 1.658,2.363c0.605,0.762 1.205,1.512 1.826,2.245c0.633,0.73 1.266,1.463 1.937,2.163c0.667,0.7 1.35,1.383 2.05,2.05c0.7,0.683 1.4,1.337 2.129,1.971c0.733,0.65 1.484,1.271 2.25,1.87c0.746,0.588 1.53,1.171 2.325,1.742c0.783,0.554 1.579,1.092 2.392,1.613c0.816,0.537 1.646,1.025 2.475,1.512c0.845,0.471 1.691,0.929 2.554,1.35c0.863,0.459 1.741,0.879 2.638,1.288c0.879,0.375 1.775,0.75 2.67,1.075c0.913,0.358 1.821,0.7 2.751,1.008c0.912,0.291 1.837,0.571 2.783,0.812c0.929,0.263 1.871,0.492 2.817,0.701c0.941,0.195 1.887,0.391 2.829,0.537c0.946,0.163 1.904,0.309 2.866,0.425c0.942,0.163 1.904,0.291 2.863,0.392c0.962,0.029 1.937,0.029 2.9,-0l1.12,-0c0.979,0.029 1.938,0.029 2.913,-0c0.296,-0 0.587,-0.017 0.879,-0.033c0.996,-0.101 1.971,-0.23 2.946,-0.376c0.962,-0.112 1.904,-0.245 2.867,-0.391c0.941,-0.196 1.887,-0.392 2.817,-0.617c0.878,-0.163 1.741,-0.342 2.604,-0.554l0.387,-0c0.279,-0.113 0.554,-0.246 0.85,-0.375c1.283,-0.392 2.571,-0.812 3.825,-1.287c0.892,-0.342 1.787,-0.701 2.667,-1.072c0.912,-0.391 1.791,-0.783 2.671,-1.204c0.862,-0.442 1.724,-0.879 2.553,-1.354c0.863,-0.454 1.692,-0.942 2.526,-1.429c0.829,-0.521 1.641,-1.041 2.437,-1.596c0.8,-0.537 1.579,-1.108 2.363,-1.692c0.762,-0.604 1.512,-1.208 2.246,-1.824c0.733,-0.617 1.449,-1.255 2.162,-1.905c0.7,-0.666 1.387,-1.35 2.054,-2.05c0.667,-0.683 1.333,-1.366 1.967,-2.083c0.637,-0.733 1.254,-1.484 1.858,-2.246c0.6,-0.766 1.188,-1.529 1.742,-2.329c0.566,-0.779 1.104,-1.579 1.625,-2.392c0.521,-0.812 1.025,-1.645 1.516,-2.475c0.471,-0.862 0.926,-1.725 1.35,-2.604c0.438,-0.846 0.846,-1.708 1.238,-2.588c0.387,-0.878 0.746,-1.774 1.087,-2.67c0.359,-0.908 0.684,-1.821 1.013,-2.75c0.292,-0.908 0.55,-1.821 0.796,-2.75c0.275,-0.929 0.521,-1.871 0.75,-2.817c0.191,-0.958 0.37,-1.904 0.537,-2.862c0.163,-0.963 0.309,-1.904 0.421,-2.867c0.163,-0.958 0.275,-1.933 0.392,-2.896c0.016,-0.958 0.016,-1.921 0,-2.862l0,-1.125c0.016,-0.992 0.016,-1.971 0,-2.946c-0.017,-0.292 -0.017,-0.605 -0.034,-0.896c-0.095,-0.975 -0.229,-1.954 -0.391,-2.946c-0.096,-0.941 -0.225,-1.904 -0.388,-2.846c-0.179,-0.962 -0.375,-1.92 -0.621,-2.866c-0.162,-0.863 -0.341,-1.709 -0.537,-2.555l0,-0.391c-0.129,-0.292 -0.258,-0.571 -0.391,-0.846c-0.371,-1.287 -0.797,-2.554 -1.267,-3.791c-0.342,-0.93 -0.7,-1.826 -1.092,-2.722c-0.359,-0.878 -0.75,-1.758 -1.154,-2.633c-0.442,-0.862 -0.879,-1.712 -1.355,-2.558c-0.454,-0.846 -0.941,-1.675 -1.428,-2.504c-0.521,-0.817 -1.042,-1.613 -1.596,-2.408c-0.538,-0.801 -1.109,-1.58 -1.692,-2.363c-0.588,-0.75 -1.204,-1.496 -1.825,-2.229c-0.633,-0.767 -1.271,-1.496 -1.937,-2.213c-0.667,-0.7 -1.351,-1.383 -2.051,-2.05c-0.699,-0.683 -1.399,-1.337 -2.133,-1.971c-0.729,-0.633 -1.479,-1.271 -2.246,-1.854c-0.746,-0.604 -1.529,-1.192 -2.308,-1.742c-0.817,-0.57 -1.612,-1.108 -2.441,-1.629c-0.817,-0.52 -1.646,-1.025 -2.475,-1.512c-0.846,-0.475 -1.692,-0.93 -2.555,-1.35c-0.879,-0.458 -1.741,-0.879 -2.637,-1.288c-0.879,-0.375 -1.776,-0.733 -2.671,-1.075c-0.896,-0.358 -1.804,-0.7 -2.717,-1.008c-0.912,-0.292 -1.842,-0.571 -2.783,-0.813c-0.929,-0.279 -1.871,-0.521 -2.817,-0.733c-0.941,-0.212 -1.887,-0.392 -2.833,-0.554c-0.959,-0.162 -1.934,-0.291 -2.896,-0.425c-0.958,-0.146 -1.904,-0.275 -2.863,-0.371c-0.979,-0.033 -1.937,-0.033 -2.916,-0c-0.359,-0.016 -0.713,-0.016 -1.071,-0l-0.033,-0Z" style="fill:#fff;fill-rule:nonzero;"/><path d="M6399.69,5061.7c-0.979,-0.033 -1.938,-0.033 -2.913,-0c-0.296,-0 -0.587,0.017 -0.879,0.017c-0.996,0.112 -1.971,0.241 -2.946,0.387c-0.962,0.117 -1.921,0.246 -2.867,0.392c-0.958,0.179 -1.92,0.392 -2.862,0.616c-0.862,0.167 -1.713,0.342 -2.559,0.538l-0.387,0c-0.279,0.133 -0.571,0.263 -0.85,0.392c-1.283,0.391 -2.538,0.813 -3.791,1.288c-0.897,0.325 -1.788,0.699 -2.667,1.074c-0.913,0.371 -1.792,0.78 -2.671,1.205c-0.862,0.42 -1.725,0.879 -2.554,1.35c-0.846,0.454 -1.692,0.924 -2.525,1.433c-0.813,0.504 -1.608,1.042 -2.392,1.591c-0.796,0.538 -1.596,1.109 -2.358,1.696c-0.767,0.584 -1.517,1.205 -2.246,1.821c-0.75,0.621 -1.467,1.271 -2.167,1.938c-0.7,0.666 -1.383,1.35 -2.05,2.05c-0.683,0.683 -1.333,1.399 -1.987,2.133c-0.634,0.733 -1.25,1.479 -1.854,2.246c-0.605,0.75 -1.171,1.529 -1.742,2.312c-0.554,0.796 -1.108,1.592 -1.629,2.409c-0.521,0.812 -1.025,1.625 -1.496,2.47c-0.471,0.85 -0.929,1.713 -1.367,2.592c-0.425,0.862 -0.845,1.725 -1.237,2.588c-0.392,0.895 -0.767,1.804 -1.121,2.716c-0.346,0.896 -0.671,1.792 -0.962,2.7c-0.309,0.929 -0.588,1.859 -0.846,2.8c-0.263,0.913 -0.488,1.842 -0.7,2.784c-0.213,0.945 -0.392,1.904 -0.538,2.866c-0.179,0.942 -0.308,1.905 -0.437,2.863c-0.15,0.962 -0.279,1.921 -0.375,2.9c-0.034,0.958 -0.034,1.904 -0,2.862c-0.017,0.376 -0.017,0.75 -0,1.125c-0.034,0.959 -0.034,1.905 -0,2.863c-0,0.308 0.016,0.621 0.033,0.929c0.096,0.958 0.225,1.904 0.371,2.863c0.116,0.979 0.246,1.971 0.392,2.945c0.179,0.963 0.391,1.904 0.621,2.867c0.162,0.846 0.341,1.691 0.533,2.537l-0,0.392c0.133,0.292 0.262,0.571 0.391,0.863c0.392,1.271 0.817,2.537 1.288,3.791c0.325,0.913 0.7,1.809 1.075,2.705c0.371,0.879 0.745,1.753 1.171,2.633c0.42,0.863 0.879,1.712 1.35,2.558c0.454,0.846 0.929,1.675 1.433,2.504c0.504,0.829 1.025,1.646 1.579,2.442c0.538,0.8 1.088,1.596 1.658,2.363c0.605,0.762 1.205,1.512 1.826,2.245c0.633,0.73 1.266,1.463 1.937,2.163c0.667,0.7 1.35,1.383 2.05,2.05c0.7,0.683 1.4,1.337 2.129,1.971c0.733,0.65 1.484,1.271 2.25,1.87c0.746,0.588 1.53,1.171 2.325,1.742c0.783,0.554 1.579,1.092 2.392,1.613c0.816,0.537 1.646,1.025 2.475,1.512c0.845,0.471 1.691,0.929 2.554,1.35c0.863,0.459 1.741,0.879 2.638,1.288c0.879,0.375 1.775,0.75 2.67,1.075c0.913,0.358 1.821,0.7 2.751,1.008c0.912,0.291 1.837,0.571 2.783,0.812c0.929,0.263 1.871,0.492 2.817,0.701c0.941,0.195 1.887,0.391 2.829,0.537c0.946,0.163 1.904,0.309 2.866,0.425c0.942,0.163 1.904,0.291 2.863,0.392c0.962,0.029 1.937,0.029 2.9,-0l1.12,-0c0.979,0.029 1.938,0.029 2.913,-0c0.296,-0 0.587,-0.017 0.879,-0.033c0.996,-0.101 1.971,-0.23 2.946,-0.376c0.962,-0.112 1.904,-0.245 2.867,-0.391c0.941,-0.196 1.887,-0.392 2.817,-0.617c0.878,-0.163 1.741,-0.342 2.604,-0.554l0.387,-0c0.279,-0.113 0.554,-0.246 0.85,-0.375c1.283,-0.392 2.571,-0.812 3.825,-1.287c0.892,-0.342 1.787,-0.701 2.667,-1.072c0.912,-0.391 1.791,-0.783 2.671,-1.204c0.862,-0.442 1.724,-0.879 2.553,-1.354c0.863,-0.454 1.692,-0.942 2.526,-1.429c0.829,-0.521 1.641,-1.041 2.437,-1.596c0.8,-0.537 1.579,-1.108 2.363,-1.692c0.762,-0.604 1.512,-1.208 2.246,-1.824c0.733,-0.617 1.449,-1.255 2.162,-1.905c0.7,-0.666 1.387,-1.35 2.054,-2.05c0.667,-0.683 1.333,-1.366 1.967,-2.083c0.637,-0.733 1.254,-1.484 1.858,-2.246c0.6,-0.766 1.188,-1.529 1.742,-2.329c0.566,-0.779 1.104,-1.579 1.625,-2.392c0.521,-0.812 1.025,-1.645 1.516,-2.475c0.471,-0.862 0.926,-1.725 1.35,-2.604c0.438,-0.846 0.846,-1.708 1.238,-2.588c0.387,-0.878 0.746,-1.774 1.087,-2.67c0.359,-0.908 0.684,-1.821 1.013,-2.75c0.292,-0.908 0.55,-1.821 0.796,-2.75c0.275,-0.929 0.521,-1.871 0.75,-2.817c0.191,-0.958 0.37,-1.904 0.537,-2.862c0.163,-0.963 0.309,-1.904 0.421,-2.867c0.163,-0.958 0.275,-1.933 0.392,-2.896c0.016,-0.958 0.016,-1.921 0,-2.862l0,-1.125c0.016,-0.992 0.016,-1.971 0,-2.946c-0.017,-0.292 -0.017,-0.605 -0.034,-0.896c-0.095,-0.975 -0.229,-1.954 -0.391,-2.946c-0.096,-0.941 -0.225,-1.904 -0.388,-2.846c-0.179,-0.962 -0.375,-1.92 -0.621,-2.866c-0.162,-0.863 -0.341,-1.709 -0.537,-2.555l0,-0.391c-0.129,-0.292 -0.258,-0.571 -0.391,-0.846c-0.371,-1.287 -0.797,-2.554 -1.267,-3.791c-0.342,-0.93 -0.7,-1.826 -1.092,-2.722c-0.359,-0.878 -0.75,-1.758 -1.154,-2.633c-0.442,-0.862 -0.879,-1.712 -1.355,-2.558c-0.454,-0.846 -0.941,-1.675 -1.428,-2.504c-0.521,-0.817 -1.042,-1.613 -1.596,-2.408c-0.538,-0.801 -1.109,-1.58 -1.692,-2.363c-0.588,-0.75 -1.204,-1.496 -1.825,-2.229c-0.633,-0.767 -1.271,-1.496 -1.937,-2.213c-0.667,-0.7 -1.351,-1.383 -2.051,-2.05c-0.699,-0.683 -1.399,-1.337 -2.133,-1.971c-0.729,-0.633 -1.479,-1.271 -2.246,-1.854c-0.746,-0.604 -1.529,-1.192 -2.308,-1.742c-0.817,-0.57 -1.612,-1.108 -2.441,-1.629c-0.817,-0.52 -1.646,-1.025 -2.475,-1.512c-0.846,-0.475 -1.692,-0.93 -2.555,-1.35c-0.879,-0.458 -1.741,-0.879 -2.637,-1.288c-0.879,-0.375 -1.776,-0.733 -2.671,-1.075c-0.896,-0.358 -1.804,-0.7 -2.717,-1.008c-0.912,-0.292 -1.842,-0.571 -2.783,-0.813c-0.929,-0.279 -1.871,-0.521 -2.817,-0.733c-0.941,-0.212 -1.887,-0.392 -2.833,-0.554c-0.959,-0.162 -1.934,-0.291 -2.896,-0.425c-0.958,-0.146 -1.904,-0.275 -2.863,-0.371c-0.979,-0.033 -1.937,-0.033 -2.916,-0c-0.359,-0.016 -0.713,-0.016 -1.071,-0l-0.033,-0Z" style="fill:#fff;fill-rule:nonzero;"/><path d="M7777.31,7923.37c-0,190.204 -616.75,344.387 -1377.56,344.387c-760.787,0 -1377.54,-154.183 -1377.54,-344.387c-0,-91.338 145.133,-178.938 403.483,-243.521c258.333,-64.583 608.725,-100.863 974.054,-100.863c365.35,0 715.742,36.28 974.075,100.863c258.35,64.583 403.484,152.183 403.484,243.521Z" style="fill:#ccc;fill-rule:nonzero;"/><path d="M5997.93,7022.22c0,353.191 -117.791,855.275 -263.104,855.275c-145.296,0.016 -263.083,-502.084 -263.083,-855.275c-0,-353.205 155.516,-423.763 263.083,-423.763c107.588,0 263.104,70.558 263.104,423.763Z" style="fill:#efcd2f;fill-rule:nonzero;"/><path d="M5408.19,7217.1c12.63,131.804 36.867,267.254 69.921,385.063c24.921,88.766 54.279,167.154 91.325,229.05c37.046,61.883 86.817,119.712 165.429,119.712c78.613,0 128.321,-57.829 165.367,-119.712c37.042,-61.896 66.404,-140.346 91.325,-229.117c33.054,-117.792 57.292,-253.208 69.904,-384.996l-147.787,0c-12.321,119.209 -34.554,242.108 -63.525,345.379c-22.704,80.892 -49.967,150.067 -75.879,193.342c-19.434,32.471 -35.221,43.379 -39.405,46.796c-4.166,-3.417 -19.987,-14.325 -39.404,-46.796c-25.912,-43.275 -53.237,-112.45 -75.942,-193.342c-28.987,-103.271 -51.203,-226.17 -63.524,-345.379l-147.805,0Z" style="fill:#1a1a1a;fill-rule:nonzero;"/><path d="M5734.86,6525.07c-69.841,-0 -160.466,25.683 -227.945,105.37c-67.48,79.688 -108.592,204.375 -108.592,391.763c0,75.083 5.029,155.617 14.258,236.654l148.079,0c-9.979,-81.821 -15.479,-163.2 -15.479,-236.654c0,-165.838 36.638,-253.013 73.813,-296.908c37.171,-43.879 78.141,-53.384 115.866,-53.384c37.746,0 78.63,9.505 115.805,53.384c37.158,43.895 73.829,131.07 73.829,296.908c-0,73.454 -5.5,154.833 -15.48,236.654l148.063,0c9.229,-81.037 14.258,-161.571 14.258,-236.654c0,-187.388 -41.095,-312.075 -108.575,-391.763c-67.483,-79.687 -158.058,-105.37 -227.9,-105.37Z" style="fill:#1a1a1a;fill-rule:nonzero;"/><path d="M7327.8,7022.22c-0,353.191 -117.792,855.275 -263.087,855.275c-145.296,0.016 -263.084,-502.084 -263.084,-855.275c0,-353.205 155.5,-423.763 263.084,-423.763c107.587,0 263.087,70.558 263.087,423.763Z" style="fill:#efcd2f;fill-rule:nonzero;"/><path d="M6738.07,7217.1c12.612,131.804 36.862,267.254 69.921,385.063c24.904,88.766 54.262,167.154 91.308,229.05c37.046,61.883 86.833,119.712 165.446,119.712c78.612,0 128.321,-57.829 165.367,-119.712c37.041,-61.896 66.403,-140.346 91.308,-229.117c33.054,-117.792 57.291,-253.208 69.921,-384.996l-147.788,0c-12.321,119.209 -34.554,242.108 -63.525,345.379c-22.704,80.892 -49.983,150.067 -75.896,193.342c-19.416,32.471 -35.221,43.379 -39.387,46.796c-4.183,-3.417 -19.988,-14.325 -39.421,-46.796c-25.912,-43.275 -53.237,-112.45 -75.941,-193.342c-28.976,-103.271 -51.192,-226.17 -63.513,-345.379l-147.8,0Z" style="fill:#1a1a1a;fill-rule:nonzero;"/><path d="M7064.75,6525.07c-69.842,-0 -160.484,25.683 -227.963,105.37c-67.479,79.688 -108.575,204.375 -108.575,391.763c0,75.083 5.03,155.617 14.242,236.654l148.079,0c-9.979,-81.821 -15.479,-163.2 -15.479,-236.654c-0,-165.838 36.654,-253.013 73.825,-296.908c37.158,-43.879 78.125,-53.384 115.871,-53.384c37.729,0 78.629,9.505 115.787,53.384c37.175,43.895 73.846,131.07 73.846,296.908c0,73.454 -5.516,154.833 -15.479,236.654l148.046,0c9.229,-81.037 14.258,-161.571 14.258,-236.654c-0,-187.388 -41.096,-312.075 -108.579,-391.763c-67.479,-79.687 -158.037,-105.37 -227.879,-105.37Z" style="fill:#1a1a1a;fill-rule:nonzero;"/><path d="M4393.41,5542.03c-305.891,-176.596 -681.82,-529.637 -609.162,-655.483c72.637,-125.834 566.358,23.208 872.25,199.804c305.875,176.608 289.225,346.562 235.433,439.729c-53.796,93.162 -192.646,192.563 -498.521,15.95Z" style="fill:#efcd2f;fill-rule:nonzero;"/><path d="M4519.48,4933.85c-120.458,-54.963 -249.887,-101.692 -368.425,-131.966c-89.337,-22.817 -171.891,-36.571 -244.025,-35.451c-72.12,1.142 -147.087,15.351 -186.395,83.434c-39.305,68.067 -14.08,140.021 20.995,203.058c35.075,63.021 88.329,127.688 152.75,193.638c85.5,87.517 190.642,176.22 298.455,253.041l73.895,-127.979c-97.071,-70.279 -192.383,-150.975 -267.337,-227.717c-58.704,-60.108 -104.963,-118.308 -129.492,-162.387c-18.408,-33.054 -19.954,-52.179 -20.833,-57.517c5.062,-1.887 22.396,-10.141 60.237,-10.725c50.442,-0.8 123.992,10.105 205.421,30.904c103.909,26.534 221.45,68.75 330.846,117.68l73.908,-128.013Z" style="fill:#1a1a1a;fill-rule:nonzero;"/><path d="M4955.47,5562.79c34.925,-60.478 57.987,-151.804 22.721,-250.095c-35.271,-98.275 -122.708,-196.242 -284.98,-289.925c-65.02,-37.533 -137.287,-73.438 -212.074,-105.992l-74.042,128.242c75.846,32.275 149.071,68.196 212.696,104.929c143.604,82.912 200.783,158.237 220.217,212.371c19.416,54.133 7.157,94.366 -11.705,127.05c-18.879,32.683 -47.541,63.346 -104.133,73.583c-56.609,10.238 -150.442,-1.591 -294.046,-84.504c-63.621,-36.733 -131.329,-82.179 -197.217,-131.737l-74.021,128.22c65.575,48.521 132.796,93.134 197.817,130.684c162.275,93.683 290.821,120.441 393.571,101.854c102.754,-18.604 170.283,-84.196 205.196,-144.68Z" style="fill:#1a1a1a;fill-rule:nonzero;"/><path d="M8576.22,5131.54c91.416,341.163 107.6,856.626 -32.746,894.242c-140.35,37.596 -384.083,-416.895 -475.491,-758.058c-91.421,-341.163 40.528,-449.562 144.449,-477.408c103.909,-27.851 272.379,-0 363.788,341.224Z" style="fill:#efcd2f;fill-rule:nonzero;"/><path d="M8057.03,5472.41c46.305,124.054 104.784,248.616 167.201,353.858c47.037,79.296 95.687,147.396 147.479,197.591c51.808,50.209 114.858,93.163 190.787,72.817c75.925,-20.346 108.983,-89.062 128.741,-158.429c19.764,-69.371 27.829,-152.738 28.909,-244.937c1.45,-122.334 -10.187,-259.409 -32.096,-389.975l-142.758,38.245c18.946,118.346 29.279,242.809 28.025,350.05c-0.996,84.017 -9.438,157.896 -23.254,206.396c-10.371,36.396 -22.805,51.013 -25.946,55.404c-4.917,-2.229 -23.013,-8.675 -50.179,-34.991c-36.229,-35.109 -80.534,-94.842 -123.404,-167.109c-54.721,-92.249 -107.976,-205.224 -150.734,-317.171l-142.771,38.251Z" style="fill:#1a1a1a;fill-rule:nonzero;"/><path d="M8193.46,4719.4c-67.451,18.083 -148.359,66.342 -192.905,160.775c-44.562,94.45 -51.987,225.537 -3.5,406.529c19.434,72.525 45.15,149.004 75.034,224.917l143.016,-38.329c-30.812,-76.467 -57.196,-153.646 -76.204,-224.592c-42.921,-160.175 -30.079,-253.875 -5.533,-305.896c24.541,-52.017 61.654,-71.792 98.112,-81.558c36.442,-9.767 78.4,-11.163 125.667,21.6c47.25,32.779 105.242,107.504 148.158,267.675c19.013,70.946 34.75,150.975 46.292,232.6l143.017,-38.313c-12.059,-80.679 -28.042,-159.766 -47.476,-232.291c-48.503,-180.992 -120.479,-290.804 -206.283,-350.308c-85.792,-59.509 -179.933,-60.876 -247.395,-42.809Z" style="fill:#1a1a1a;fill-rule:nonzero;"/><path d="M5064.24,3336.55c-332.096,-0 -603.142,271.029 -603.142,603.125l-0,2671.06c-0,332.096 271.046,603.125 603.142,603.125l2671.06,-0c332.096,-0 603.125,-271.029 603.125,-603.125l0,-2671.06c0,-332.096 -271.029,-603.125 -603.125,-603.125l-2671.06,-0Zm-0,234.946l2671.06,0c206.004,0 368.18,162.175 368.18,368.179l-0,2671.06c-0,206.008 -162.176,368.179 -368.18,368.179l-2671.06,-0c-206.004,-0 -368.179,-162.171 -368.179,-368.179l-0,-2671.06c-0,-206.004 162.175,-368.179 368.179,-368.179Z" style="fill:#1a1a1a;fill-rule:nonzero;"/><path d="M5064.24,3454.04l2671.05,0c269.059,0 485.659,216.601 485.659,485.659l-0,2671.05c-0,269.058 -216.6,485.662 -485.659,485.662l-2671.05,0c-269.059,0 -485.663,-216.604 -485.663,-485.662l0,-2671.05c0,-269.058 216.604,-485.659 485.663,-485.659Z" style="fill:#efcd2f;fill-rule:nonzero;"/><path d="M6399.75,3454.04l-175.387,303.809c-75.571,130.875 -149.35,182.325 -314.958,181.833l-845.167,-2.554c-269.059,-0.829 -485.663,216.604 -485.663,485.662l0,1092.17l3642.37,-479.508l-0,-1095.77c-0,-269.041 -216.6,-485.658 -485.659,-485.658l-1335.53,0.016Z" style="fill:#f5e23e;fill-rule:nonzero;"/><path d="M6399.75,3454.04l-175.387,303.825c-75.571,130.859 -149.35,182.326 -314.958,181.817l-845.167,-2.554c-269.059,0 -485.663,216.616 -485.663,485.679l0,155.404c0,-269.062 216.604,-485.662 485.663,-485.662l844.708,2.521c98.975,0.312 191.979,-15.984 271.713,-63.851c79.754,-47.849 134.004,-118.929 178.337,-195.704l130.488,-226.054l1245.8,0c269.059,0 485.659,216.6 485.659,485.659l-0,-155.404c-0,-269.059 -216.6,-485.659 -485.659,-485.659l-1335.53,-0.017Z" style="fill:#fffeb3;fill-rule:nonzero;"/><path d="M4578.58,6455.34l0,155.404c0,269.058 216.604,485.662 485.663,485.662l2671.05,0c269.059,0 485.659,-216.604 485.659,-485.662l-0,-155.404c-0,269.058 -216.6,485.662 -485.659,485.662l-2671.05,0c-269.059,0 -485.663,-216.604 -485.663,-485.662Z" style="fill:#d6a81e;fill-rule:nonzero;"/><path d="M5064.24,3454.04c-269.042,0 -485.663,216.601 -485.663,485.642l1330.83,-0c165.608,-0 239.387,-50.958 314.958,-181.833l175.387,-303.809l-1335.51,0Z" style="fill:#efcd2f;fill-rule:nonzero;"/><path d="M5064.23,3696.88c-134.521,0 -242.821,108.3 -242.821,242.821l0,61.817c71.371,-41.13 154.212,-64.646 242.838,-64.388l845.167,2.554c165.608,0.475 239.387,-50.975 314.958,-181.833l35.187,-60.971l-1195.33,0Z" style="fill:#fff;fill-rule:nonzero;"/><path d="M5064.23,3671.42c-148.192,-0 -268.262,120.083 -268.262,268.258l-0,61.834l50.895,-0l0,-61.834c0,-120.862 96.5,-217.367 217.367,-217.367l1195.33,0l0,-50.891l-1195.33,-0Z" style="fill:#bababa;fill-rule:nonzero;"/><path d="M6374.33,3439.35l-175.408,303.792c-36.537,63.3 -70.688,104.071 -113.396,129.687c-42.708,25.638 -96.287,37.73 -176.042,37.488l-845.149,-2.558c-284.926,-0.863 -515.134,230.224 -515.134,515.041l58.754,0c0,-253.304 203.013,-457.067 456.2,-456.3l845.15,2.537c85.875,0.263 151.971,-13.133 206.446,-45.833c54.475,-32.695 95.021,-83.087 134.033,-150.666l175.409,-303.826l-50.863,-29.362Z" style="fill:#bf9b56;fill-rule:nonzero;"/><path d="M5064.24,3424.68c-284.813,-0 -515.038,230.192 -515.038,515.004l-0,2671.06c-0,284.816 230.225,515.041 515.038,515.041l2671.06,0c284.813,0 515.004,-230.225 515.004,-515.041l0,-2671.06c0,-284.812 -230.191,-515.004 -515.004,-515.004l-2671.06,-0Zm-0,58.725l2671.06,-0c253.288,-0 456.267,202.992 456.267,456.279l0,2671.06c0,253.287 -202.979,456.283 -456.267,456.283l-2671.06,-0c-253.288,-0 -456.284,-202.996 -456.284,-456.283l0,-2671.06c0,-253.287 202.996,-456.279 456.284,-456.279Z" style="fill:#1a1a1a;fill-rule:nonzero;"/><path d="M7175.91,4775.34c-169.579,-0 -307.066,76.987 -307.079,171.958c0,45.621 32.355,89.354 89.938,121.612c57.587,32.259 135.696,50.376 217.141,50.376c81.446,-0 159.555,-18.134 217.138,-50.376c57.583,-32.258 89.942,-75.991 89.942,-121.612c-0.017,-94.971 -137.484,-171.958 -307.08,-171.958Z" style="fill:#ff9573;fill-rule:nonzero;"/><path d="M5623.62,4775.34c-169.58,-0 -307.063,76.987 -307.063,171.958c0,45.621 32.338,89.354 89.925,121.612c57.583,32.242 135.692,50.376 217.138,50.376c81.445,-0 159.554,-18.117 217.137,-50.376c57.6,-32.258 89.942,-75.991 89.942,-121.612c-0,-94.971 -137.484,-171.958 -307.079,-171.958Z" style="fill:#ff9573;fill-rule:nonzero;"/><path d="M5459.49,4650.38c0,-112.825 60.321,-217.317 158.026,-273.729c97.704,-56.417 218.341,-56.417 316.05,-0c97.704,56.412 158.02,160.904 158.02,273.729l-117.462,-0c-0,-71.046 -37.758,-136.508 -99.3,-172.021c-61.525,-35.533 -137.046,-35.533 -198.567,0c-61.541,35.513 -99.3,100.975 -99.3,172.021l-117.467,-0Z" style="fill:#1a1a1a;fill-rule:nonzero;"/><path d="M6707.93,4650.38c-0,-112.825 60.321,-217.317 158.025,-273.729c97.704,-56.417 218.342,-56.417 316.05,-0c97.721,56.412 158.038,160.904 158.038,273.729l-117.48,-0c0,-71.046 -37.758,-136.508 -99.283,-172.021c-61.541,-35.533 -137.062,-35.533 -198.583,0c-61.525,35.513 -99.3,100.975 -99.3,172.021l-117.467,-0Z" style="fill:#1a1a1a;fill-rule:nonzero;"/><path d="M5719.88,5063.27c-78.55,0 -141.8,63.23 -141.8,141.796l0,159.992c0,453.808 367.888,821.667 821.679,821.667c453.796,-0 821.684,-367.859 821.684,-821.667l-0,-159.992c-0,-78.566 -63.251,-141.796 -141.8,-141.796l-1359.76,0Z" style="fill:#fff;fill-rule:nonzero;"/><path d="M6560.27,5063.27l-0.292,0.342c0,0 139.467,267.917 0,515.346c174.054,274.954 20.863,587.663 20.863,587.663c366.604,-82.517 640.479,-410.042 640.479,-801.563l-0,-160.008c-0,-78.55 -63.246,-141.796 -141.796,-141.796l-519.254,0.016Z" style="fill:#b9dae9;fill-rule:nonzero;"/><path d="M6963.46,5063.27l0,0.342c0,0 159.896,183.883 0,379.034c184.1,171.079 12.617,508.091 12.617,508.091c151.479,-149.058 245.458,-356.379 245.458,-585.679l0,-160.008c0,-78.55 -63.233,-141.796 -141.796,-141.796l-116.279,0.016Z" style="fill:#1a1a1a;fill-rule:nonzero;"/><path d="M5836.17,5063.27l-0,0.342c-0,0 -159.896,183.883 -0,379.034c-184.1,171.079 -12.617,508.091 -12.617,508.091c-151.479,-149.058 -245.459,-356.379 -245.459,-585.679l0,-160.008c0,-78.55 63.234,-141.796 141.784,-141.796l116.292,0.016Z" style="fill:#1a1a1a;fill-rule:nonzero;"/><path d="M6378.88,5033.87l0,58.725l700.779,-0c62.796,-0 112.421,49.641 112.421,112.433l0,160.042c0,437.908 -354.396,792.254 -792.321,792.254c-6.979,-0 -13.946,-0.1 -20.879,-0.279l0,58.758c6.95,0.163 13.9,0.246 20.879,0.246c469.663,-0 851.058,-381.316 851.058,-850.996l0,-160.025c0,-94.321 -76.837,-171.158 -171.158,-171.158l-700.779,-0Z" style="fill:#1a1a1a;fill-rule:nonzero;"/><path d="M5719.88,5033.87c-94.321,-0 -171.162,76.837 -171.162,171.158l-0,160.042c-0,469.663 381.383,850.979 851.041,850.979c6.983,-0 13.934,-0.083 20.867,-0.246l-0,-58.758c-6.933,0.179 -13.884,0.279 -20.867,0.279c-437.921,-0 -792.316,-354.346 -792.316,-792.254l-0,-160.042c-0,-62.792 49.641,-112.433 112.437,-112.433l700.746,-0l-0,-58.725l-700.746,-0Z" style="fill:#1a1a1a;fill-rule:nonzero;"/><path d="M6399.75,2104.83c-6.962,0 -13.912,0.117 -20.863,0.213l0,234.946c6.934,-0.117 13.884,-0.213 20.863,-0.213c244.808,0 460.046,77.229 611.738,208.625c151.675,131.396 243.766,314.779 243.766,552.767l0,414.891c0,50.93 -0.929,91.863 -7.796,120.121c-11.608,47.867 -34.212,64.046 -78.629,78.221c-44.404,14.192 -108.27,11.134 -143.346,-0.341c-195.716,-63.996 -405.695,-102.342 -625.733,-102.342c-6.979,-0 -13.912,0.163 -20.863,0.225l0,234.963c6.951,-0.084 13.901,-0.196 20.863,-0.196c192.759,-0 377.755,33.462 552.704,90.675c86.1,28.154 187.059,33.02 287.909,0.779c100.829,-32.208 203.954,-116.779 235.462,-246.584c16.1,-66.437 14.388,-125.846 14.388,-175.471l-0,-414.875c-0,-301.024 -124.9,-557.079 -324.951,-730.37c-200.033,-173.292 -471.32,-265.967 -765.512,-265.967l0,-0.067Z" style="fill:#1a1a1a;fill-rule:nonzero;"/><path d="M6399.75,2104.83c-294.204,0 -565.446,92.709 -765.475,265.984c-200.05,173.292 -324.954,429.329 -324.954,730.354l0,414.891c0,49.646 -1.725,109.067 14.404,175.521c31.513,129.805 134.621,214.359 235.45,246.584c100.863,32.241 201.808,27.362 287.909,-0.779c174.949,-57.213 359.895,-90.675 552.666,-90.675c6.983,-0 13.934,0.112 20.9,0.196l0,-234.963c-6.966,-0.062 -13.917,-0.225 -20.9,-0.225c-220.05,-0 -429.962,38.346 -625.683,102.342c-35.075,11.475 -98.942,14.533 -143.342,0.341c-44.417,-14.175 -67.041,-30.354 -78.646,-78.221c-6.854,-28.258 -7.795,-69.191 -7.795,-120.121l-0,-414.891c-0,-237.988 92.087,-421.371 243.766,-552.767c151.692,-131.396 366.879,-208.625 611.7,-208.625c6.983,0 13.95,0.096 20.9,0.213l0,-234.879c-6.966,-0.117 -13.917,-0.213 -20.9,-0.213l0,-0.067Z" style="fill:#1a1a1a;fill-rule:nonzero;"/><path d="M6989,3825.75c121.175,39.617 329.558,15.821 372.658,-161.883c11.492,-47.363 11.067,-97.542 11.067,-147.817l-0,-414.896c-0,-539.013 -433.934,-878.854 -972.95,-878.854c-539.013,0 -972.946,339.841 -972.946,878.854l-0,414.896c-0,50.275 -0.408,100.454 11.083,147.817c43.096,177.704 251.48,201.5 372.638,161.883c185.337,-60.612 382.829,-96.55 589.225,-96.55c206.412,0 403.892,35.938 589.225,96.55Z" style="fill:#ff6839;fill-rule:nonzero;"/><path d="M6399.77,3247.17c-358.267,0 -691.696,102.247 -972.917,279.088c-0,46.858 0.359,93.471 11.054,137.613c43.096,177.704 251.48,201.483 372.638,161.866c185.337,-60.595 382.829,-96.533 589.225,-96.533c206.412,0 403.892,35.938 589.242,96.533c121.158,39.617 329.541,15.838 372.641,-161.866c10.708,-44.142 11.05,-90.755 11.05,-137.596c-281.216,-176.858 -614.646,-279.105 -972.933,-279.105Z" style="fill:#999;fill-rule:nonzero;"/><path d="M6399.77,2222.3c-539.013,0 -972.946,339.858 -972.946,878.871l-0,425.083c281.217,-176.841 614.646,-279.088 972.929,-279.088c358.271,0 691.7,102.247 972.917,279.105l0,-425.1c0,-539.013 -433.934,-878.871 -972.946,-878.871l0.046,0Z" style="fill:#fff;fill-rule:nonzero;"/><path d="M7166.2,2536.47l-0,877.863c71.45,32.945 140.396,70.312 206.445,111.85l0,-425.113c0,-227.083 -77.037,-418.817 -206.478,-564.683l0.033,0.083Z" style="fill:#737373;fill-rule:nonzero;"/><path d="M5633.35,2536.43c-129.475,145.883 -206.525,337.629 -206.525,564.746l-0,425.083c66.013,-41.504 134.925,-78.841 206.346,-111.766l0.292,-0.296l-0.113,-877.767Z" style="fill:#999;fill-rule:nonzero;"/><path d="M7166.21,3414.4c71.467,32.942 140.43,70.313 206.492,111.85c0,46.858 -0.358,93.471 -11.05,137.613c-43.1,177.704 -251.483,201.483 -372.641,161.883c-11.751,-3.841 -23.534,-7.587 -35.367,-11.233c91.879,-33.284 169.987,-100.325 197.641,-214.355c14.45,-59.604 14.925,-122.524 14.925,-185.758Z" style="fill:#737373;fill-rule:nonzero;"/><path d="M6399.75,2192.94c-6.979,-0 -13.912,0.095 -20.863,0.208l0,58.742c6.934,-0.113 13.884,-0.213 20.863,-0.213c263.333,-0 499.563,83.025 669.388,230.129c169.825,147.104 274.233,357.746 274.233,619.367l0,414.891c0,50.442 0,98.292 -10.271,140.871c-19.058,78.613 -71.841,120.442 -137.417,141.409c-65.574,20.946 -143.341,17.2 -197.558,-0.538c-187.942,-61.441 -388.558,-97.966 -598.375,-97.966c-6.979,-0 -13.912,0.145 -20.863,0.212l0,58.771c6.951,-0.079 13.884,-0.225 20.863,-0.225c202.996,-0 397.396,35.3 580.129,95.05c66.958,21.892 153.938,26.091 233.625,0.616c79.688,-25.454 152.638,-84.404 176.68,-183.495c12.646,-52.129 11.929,-104.571 11.929,-154.688l-0,-414.908c-0,-277.375 -112.584,-506.184 -294.484,-663.754c-181.916,-157.584 -432.208,-244.479 -707.879,-244.479Z" style="fill:#1a1a1a;fill-rule:nonzero;"/><rect x="7136.82" y="2536.41" width="58.741" height="877.896" style="fill:#1a1a1a;fill-rule:nonzero;"/><path d="M6399.74,3217.79c-363.871,-0 -702.784,103.87 -988.542,283.591c-6.658,4.117 -11.396,10.709 -13.171,18.342c-1.77,7.621 -0.421,15.642 3.746,22.267c4.167,6.641 10.808,11.329 18.442,13.037c7.65,1.708 15.654,0.309 22.246,-3.921c276.679,-174.008 604.591,-274.579 957.279,-274.579c352.7,-0 680.662,100.621 957.337,274.642c6.609,4.25 14.634,5.695 22.3,3.987c7.667,-1.691 14.321,-6.395 18.504,-13.037c4.184,-6.638 5.517,-14.696 3.729,-22.329c-1.791,-7.651 -6.575,-14.259 -13.266,-18.359c-285.759,-179.72 -624.721,-283.641 -988.604,-283.641Z" style="fill:#1a1a1a;fill-rule:nonzero;"/><rect x="5603.99" y="2536.41" width="58.742" height="877.896" style="fill:#1a1a1a;fill-rule:nonzero;"/><path d="M6399.75,2192.94c-275.683,-0 -525.925,86.879 -707.842,244.466c-181.904,157.567 -294.483,386.375 -294.483,663.767l0,414.879c0,50.129 -0.7,102.588 11.929,154.717c24.042,99.091 96.988,158.025 176.675,183.495c79.688,25.459 166.667,21.259 233.629,-0.616c182.73,-59.75 377.101,-95.05 580.092,-95.05c6.983,-0 13.934,0.146 20.9,0.225l0,-58.771c-6.966,-0.084 -13.917,-0.229 -20.9,-0.229c-209.812,-0 -410.383,36.542 -598.321,97.983c-54.216,17.725 -131.983,21.484 -197.558,0.538c-65.579,-20.967 -118.375,-62.796 -137.438,-141.409c-10.333,-42.579 -10.27,-90.445 -10.27,-140.883l-0,-414.879c-0,-261.621 104.429,-472.263 274.237,-619.367c169.825,-147.104 406.004,-230.146 669.35,-230.146c6.983,0 13.95,0.1 20.9,0.213l0,-58.725c-6.966,-0.113 -13.917,-0.208 -20.9,-0.208Z" style="fill:#1a1a1a;fill-rule:nonzero;"/><path d="M9482.23,5162.75l-0,234.941l836.95,0c35.821,0 60.95,25.146 60.95,60.971l-0,1306.02c-0,35.825 -25.129,60.988 -60.95,60.988l-836.95,-0l-0,234.945l836.95,0c161.912,0 295.913,-134.016 295.913,-295.933l-0,-1306.02c-0,-161.912 -134.001,-295.912 -295.913,-295.912l-836.95,-0Z" style="fill:#1a1a1a;fill-rule:nonzero;"/><path d="M9482.23,4811.98l-0,234.946l173.75,-0c107.437,-0 190.25,82.846 190.25,190.267c-0,107.437 -82.813,190.266 -190.25,190.266l-173.75,0l-0,234.946l173.75,0c233.525,0 425.192,-191.666 425.192,-425.212c-0,-233.529 -191.667,-425.213 -425.192,-425.213l-173.75,0Z" style="fill:#1a1a1a;fill-rule:nonzero;"/><path d="M8062.84,5162.75c-161.913,-0 -295.9,134 -295.9,295.912l-0,1306.02c-0,161.917 133.987,295.933 295.9,295.933l1461.13,0l-0,-234.945l-1461.13,-0c-35.809,-0 -60.954,-25.163 -60.954,-60.988l-0,-1306.02c-0,-35.825 25.145,-60.971 60.954,-60.971l1461.13,0l-0,-234.941l-1461.13,-0Z" style="fill:#1a1a1a;fill-rule:nonzero;"/><path d="M9350.25,4811.98c-233.529,0 -425.212,191.684 -425.212,425.213c-0,233.546 191.683,425.212 425.212,425.212l173.729,0l-0,-234.946l-173.729,0c-107.442,0 -190.267,-82.812 -190.267,-190.266c0,-107.421 82.825,-190.267 190.267,-190.267l173.729,-0l-0,-234.946l-173.729,0Z" style="fill:#1a1a1a;fill-rule:nonzero;"/><path d="M9350.21,4929.46l305.779,0c170.475,0 307.729,137.242 307.729,307.734c-0,170.475 -137.254,307.729 -307.729,307.729l-305.779,-0c-170.476,-0 -307.734,-137.254 -307.734,-307.729c0,-170.492 137.258,-307.734 307.734,-307.734Z" style="fill:#585858;fill-rule:nonzero;"/><path d="M9482.23,4900.08l-0,58.738l173.75,-0c154.716,-0 278.366,123.666 278.366,278.371c0,154.737 -123.65,278.383 -278.366,278.383l-173.75,0l-0,58.725l173.75,0c186.246,0 337.091,-150.863 337.091,-337.108c0,-186.234 -150.845,-337.109 -337.091,-337.109l-173.75,0Z" style="fill:#1a1a1a;fill-rule:nonzero;"/><path d="M8062.86,5280.19l2256.32,-0c98.875,-0 178.467,79.608 178.467,178.466l0,1306.04c0,98.879 -79.592,178.467 -178.467,178.467l-2256.32,-0c-98.863,-0 -178.45,-79.588 -178.45,-178.467l-0,-1306.04c-0,-98.858 79.587,-178.466 178.45,-178.466Z" style="fill:#ffa65d;fill-rule:nonzero;"/><path d="M9350.25,4900.08c-186.251,0 -337.112,150.875 -337.112,337.109c-0,186.245 150.861,337.108 337.112,337.108l173.729,0l-0,-58.725l-173.729,0c-154.721,0 -278.371,-123.646 -278.371,-278.383c-0,-154.705 123.65,-278.371 278.371,-278.371l173.729,-0l-0,-58.738l-173.729,0Z" style="fill:#1a1a1a;fill-rule:nonzero;"/><path d="M8062.86,5280.19l2256.32,-0c98.875,-0 178.467,79.608 178.467,178.466l0,1306.04c0,98.879 -79.592,178.467 -178.467,178.467l-2256.32,-0c-98.863,-0 -178.45,-79.588 -178.45,-178.467l-0,-1306.04c-0,-98.858 79.587,-178.466 178.45,-178.466Z" style="fill:#585858;fill-rule:nonzero;"/><path d="M10359.8,6111.69c0,185.076 -73.504,362.546 -204.363,493.409c-130.862,130.858 -308.349,204.375 -493.408,204.375c-185.075,-0 -362.55,-73.517 -493.408,-204.375c-130.859,-130.863 -204.379,-308.333 -204.379,-493.409c-0,-385.37 312.404,-697.77 697.787,-697.77c385.367,-0 697.771,312.4 697.771,697.77Z" style="fill:#393939;fill-rule:nonzero;"/><path d="M10330.4,6111.69c0,55.288 -21.958,108.317 -61.053,147.413c-39.092,39.092 -92.122,61.05 -147.413,61.05c-55.288,-0 -108.316,-21.958 -147.396,-61.05c-39.091,-39.096 -61.067,-92.125 -61.067,-147.413c0,-55.291 21.976,-108.3 61.067,-147.395c39.08,-39.096 92.108,-61.071 147.396,-61.071c55.291,-0 108.321,21.975 147.413,61.071c39.095,39.095 61.053,92.104 61.053,147.395Z" style="fill:#707070;fill-rule:nonzero;"/><path d="M8062.88,5280.21c-98.879,0 -178.483,79.592 -178.483,178.45l-0,1306.06c-0,98.862 79.604,178.45 178.483,178.45l445.704,-0l-0,-1662.95l-445.704,0Z" style="fill:#6f6f6f;fill-rule:nonzero;"/><path d="M9885.12,6090.8c-0.605,6.884 -0.979,13.85 -0.979,20.9c0,131.004 106.821,237.808 237.825,237.808c130.991,0 237.858,-106.804 237.858,-237.808c-0,-7.05 -0.371,-14.016 -0.975,-20.9l-58.999,0c0.779,6.854 1.237,13.817 1.237,20.9c-0,99.25 -79.867,179.084 -179.121,179.084c-99.267,-0 -179.084,-79.834 -179.084,-179.084c0,-7.083 0.455,-14.046 1.238,-20.9l-59,0Z" style="fill:#1a1a1a;fill-rule:nonzero;"/><path d="M10122,5873.83c-131.004,0 -237.825,106.867 -237.825,237.875c0,7.029 0.374,13.979 0.979,20.85l58.983,0c-0.783,-6.837 -1.221,-13.787 -1.221,-20.85c0,-99.271 79.817,-179.137 179.084,-179.137c99.254,-0 179.121,79.866 179.121,179.137c-0,7.063 -0.458,14.013 -1.237,20.85l58.999,0c0.604,-6.871 0.975,-13.821 0.975,-20.85c-0,-131.008 -106.867,-237.875 -237.858,-237.875Z" style="fill:#1a1a1a;fill-rule:nonzero;"/><path d="M10200.9,6111.69c-0,385.384 -312.404,697.784 -697.77,697.784c-185.076,-0 -362.551,-73.517 -493.409,-204.375c-130.858,-130.863 -204.379,-308.333 -204.379,-493.409c0,-385.37 312.404,-697.77 697.788,-697.77c385.366,-0 697.77,312.4 697.77,697.77Z" style="fill:#6f6f6f;fill-rule:nonzero;"/><path d="M9503.09,5384.55c-6.983,0 -13.933,0.146 -20.866,0.308l-0,58.776c6.933,-0.23 13.883,-0.392 20.866,-0.392c369.517,-0 668.426,298.925 668.426,668.425c-0,369.496 -298.909,668.425 -668.426,668.425c-6.983,-0 -13.933,-0.163 -20.866,-0.392l-0,58.771c6.933,0.229 13.883,0.313 20.866,0.313c401.255,-0 727.167,-325.913 727.167,-727.167c0,-401.238 -325.912,-727.134 -727.167,-727.15l0,0.083Z" style="fill:#1a1a1a;fill-rule:nonzero;"/><path d="M9503.09,5653.04c-253.304,-0 -458.641,205.341 -458.641,458.645c-0,121.646 48.308,238.296 134.325,324.317c86.021,86.017 202.688,134.342 324.316,134.342c121.651,0.017 238.317,-48.308 324.334,-134.325c86.021,-86.021 134.342,-202.688 134.342,-324.334c-0,-121.649 -48.321,-238.316 -134.342,-324.316c-86.017,-86.021 -202.683,-134.342 -324.334,-134.329Z" style="fill:#1a1a1a;fill-rule:nonzero;"/><path d="M9503.09,5623.68c-6.995,0 -13.933,0.242 -20.866,0.551l-0,58.741c6.921,-0.325 13.871,-0.554 20.866,-0.554c237.451,-0 429.284,191.846 429.284,429.283c0,237.434 -191.833,429.296 -429.284,429.296c-6.995,0 -13.945,-0.246 -20.866,-0.554l-0,58.758c6.933,0.308 13.871,0.538 20.866,0.538c269.192,-0 488.021,-218.834 488.021,-488.009c0,-269.171 -218.829,-488.02 -488.021,-488.02l0,-0.03Z" style="fill:#1a1a1a;fill-rule:nonzero;"/><path d="M9415.14,5745.72c-73.73,-0 -144.45,29.279 -196.584,81.429c-52.146,52.129 -81.429,122.833 -81.446,196.562c0,73.75 29.3,144.467 81.429,196.6c52.151,52.134 122.871,81.43 196.601,81.43c73.728,-0 144.45,-29.296 196.583,-81.43c52.129,-52.149 81.425,-122.85 81.413,-196.6c-0,-153.529 -124.467,-277.991 -277.996,-277.991Z" style="fill:#707070;fill-rule:nonzero;"/><path d="M9503.09,5716.13c-104.912,0 -205.516,41.684 -279.703,115.854c-74.183,74.184 -115.85,174.805 -115.85,279.704c-0,116.567 51.412,227.196 140.524,302.359c-53.954,-69.596 -83.266,-155.142 -83.349,-243.213c0.016,-219.546 177.995,-397.508 397.541,-397.508c87.78,0.179 173.05,29.392 242.467,83.121c-75.033,-88.833 -185.355,-140.154 -301.63,-140.317Z" style="fill:#fff;fill-rule:nonzero;"/><path d="M9360.69,5796.99c-45.7,0 -89.533,18.151 -121.841,50.459c-32.308,32.325 -50.471,76.154 -50.471,121.858c0.017,95.15 77.163,172.296 172.312,172.296c95.167,0 172.318,-77.146 172.318,-172.296c-0,-45.704 -18.151,-89.533 -50.471,-121.858c-32.309,-32.308 -76.143,-50.459 -121.847,-50.459Z" style="fill:#fff;fill-rule:nonzero;"/><rect x="8508.58" y="5280.19" width="187.791" height="1662.97" style="fill:#393939;fill-rule:nonzero;"/><rect x="8479.23" y="5280.21" width="58.725" height="1662.94" style="fill:#1a1a1a;fill-rule:nonzero;"/><path d="M8311.87,5545.98c-0,30.6 -12.158,59.946 -33.792,81.592c-21.646,21.633 -50.992,33.792 -81.592,33.792c-63.72,-0 -115.379,-51.663 -115.379,-115.384c0,-63.721 51.659,-115.379 115.379,-115.379c30.6,-0 59.946,12.158 81.592,33.788c21.634,21.645 33.792,50.991 33.792,81.591Z" style="fill:#484848;fill-rule:nonzero;"/><path d="M8031.87,5438.98c-16.191,0.263 -29.116,13.575 -28.903,29.771l-0,1285.84c-0.113,7.858 2.945,15.446 8.462,21.041c5.517,5.6 13.054,8.742 20.917,8.742c7.858,0 15.396,-3.142 20.912,-8.742c5.517,-5.595 8.563,-13.183 8.45,-21.041l-0,-1285.84c0.113,-7.925 -2.996,-15.575 -8.629,-21.192c-5.613,-5.6 -13.262,-8.691 -21.209,-8.579Z" style="fill:#9d9d9d;fill-rule:nonzero;"/><path d="M8053.4,5525.11c-0.992,6.838 -1.675,13.755 -1.675,20.851c-0,79.591 65.171,144.774 144.758,144.774c79.609,0 144.729,-65.183 144.729,-144.774c0,-7.096 -0.683,-14.013 -1.679,-20.851l-59.65,0c1.642,6.676 2.604,13.642 2.604,20.851c0,47.854 -38.133,86.037 -86.004,86.037c-47.833,0 -86.033,-38.183 -86.033,-86.037c0,-7.209 0.958,-14.175 2.604,-20.851l-59.654,0Z" style="fill:#1a1a1a;fill-rule:nonzero;"/><path d="M9482.23,5250.85l-0,58.725l836.95,-0c83.105,-0 149.054,65.983 149.054,149.087l0,1306.02c0,83.108 -65.949,149.092 -149.054,149.092l-836.95,-0l-0,58.737l836.95,0c114.629,0 207.813,-93.196 207.813,-207.829l-0,-1306.02c-0,-114.633 -93.184,-207.812 -207.813,-207.812l-836.95,-0Z" style="fill:#1a1a1a;fill-rule:nonzero;"/><path d="M9503.09,5384.55c-401.237,0 -727.145,325.913 -727.145,727.15c0,401.25 325.908,727.146 727.145,727.146c6.984,-0 13.951,-0.062 20.884,-0.308l-0,-58.771c-6.933,0.225 -13.883,0.387 -20.884,0.387c-369.495,0 -668.408,-298.925 -668.408,-668.425c0,-369.496 298.913,-668.408 668.408,-668.408c7.001,-0 13.951,0.15 20.884,0.391l-0,-58.787c-6.933,-0.162 -13.9,-0.308 -20.884,-0.308l0,-0.067Z" style="fill:#1a1a1a;fill-rule:nonzero;"/><path d="M9503.09,5623.68c-269.17,0 -488.003,218.83 -488.003,488.021c-0,269.171 218.833,488.021 488.003,488.021c7.017,0 13.967,-0.246 20.884,-0.554l-0,-58.759c-6.917,0.325 -13.867,0.555 -20.884,0.555c-237.432,-0 -429.278,-191.846 -429.278,-429.296c-0,-237.437 191.846,-429.284 429.278,-429.284c7.017,0 13.967,0.246 20.884,0.555l-0,-58.738c-6.917,-0.312 -13.867,-0.554 -20.884,-0.554l0,0.033Z" style="fill:#1a1a1a;fill-rule:nonzero;"/><path d="M8062.84,5250.85c-114.634,-0 -207.813,93.179 -207.813,207.812l0,1306.02c0,114.633 93.179,207.829 207.813,207.829l1461.13,0l-0,-58.737l-1461.13,-0c-83.105,-0 -149.071,-65.984 -149.071,-149.092l0,-1306.02c0,-83.104 65.966,-149.087 149.071,-149.087l1461.13,-0l-0,-58.725l-1461.13,-0Z" style="fill:#1a1a1a;fill-rule:nonzero;"/><path d="M8196.48,5401.24c-79.587,0 -144.758,65.138 -144.758,144.726c-0,7.112 0.683,14.045 1.691,20.899l59.655,0c-1.646,-6.691 -2.621,-13.654 -2.621,-20.899c0,-47.851 38.2,-85.984 86.033,-85.984c47.871,0 86.004,38.133 86.004,85.984c0,7.245 -0.975,14.208 -2.62,20.899l59.666,0c0.996,-6.854 1.679,-13.787 1.679,-20.899c0,-79.588 -65.12,-144.726 -144.729,-144.726Z" style="fill:#1a1a1a;fill-rule:nonzero;"/><g><path d="M1068.64,3333.53l-0,1066.83l1782.39,-0l0,-1066.83l-234.945,-0l-0,831.883l-1312.5,-0l-0,-831.883l-234.942,-0Z" style="fill:#1a1a1a;fill-rule:nonzero;"/><path d="M1068.64,2308.45l-0,1066.83l234.942,-0l-0,-831.888l1312.5,-0l-0,831.888l234.945,-0l0,-1066.83l-1782.39,0Z" style="fill:#1a1a1a;fill-rule:nonzero;"/><rect x="1186.11" y="2425.94" width="1547.46" height="1856.97" style="fill:#fff;fill-rule:nonzero;"/><rect x="1440.88" y="2680.71" width="1037.94" height="1347.4" style="fill:#c8b474;fill-rule:nonzero;"/><rect x="1440.88" y="2680.71" width="1037.94" height="673.7" style="fill:#40d3ca;fill-rule:nonzero;"/><path d="M1156.73,3333.53l0,978.729l1606.2,-0l-0,-978.729l-58.742,-0l-0,920.004l-1488.72,-0l-0,-920.004l-58.742,-0Z" style="fill:#1a1a1a;fill-rule:nonzero;"/><path d="M2478.81,3354.41l-475.75,-475.75l-251.738,328.075l-167.45,-167.446l-143,186.346l0,128.775l1037.94,-0Z" style="fill:#37858a;fill-rule:nonzero;"/><path d="M1751.33,2844.55c-23,0 -45.054,9.129 -61.312,25.388c-16.263,16.262 -25.409,38.316 -25.392,61.312c0,47.884 38.817,86.704 86.704,86.704c47.884,0 86.7,-38.82 86.7,-86.704c0,-22.996 -9.129,-45.05 -25.391,-61.312c-16.259,-16.259 -38.313,-25.388 -61.309,-25.388Z" style="fill:#ffb200;fill-rule:nonzero;"/><path d="M1156.73,2396.55l0,978.73l58.742,-0l-0,-919.988l1488.72,0l-0,919.988l58.742,-0l-0,-978.73l-1606.2,0Z" style="fill:#1a1a1a;fill-rule:nonzero;"/></g><g><path d="M1306.91,3817.72l-0,1066.83l1782.39,0l0,-1066.83l-234.946,0l0,831.883l-1312.5,0l0,-831.883l-234.941,0Z" style="fill:#1a1a1a;fill-rule:nonzero;"/><path d="M1306.91,2792.65l-0,1066.83l234.941,0l0,-831.888l1312.5,0l0,831.888l234.946,0l0,-1066.83l-1782.39,-0Z" style="fill:#1a1a1a;fill-rule:nonzero;"/><rect x="1424.37" y="2910.14" width="1547.46" height="1856.97" style="fill:#fff;fill-rule:nonzero;"/><rect x="1679.14" y="3164.91" width="1037.94" height="1347.4" style="fill:#8c8c8c;fill-rule:nonzero;"/><rect x="1679.14" y="3164.91" width="1037.94" height="673.7" style="fill:#f5e23e;fill-rule:nonzero;"/><path d="M1832.15,3348.99l9.732,29.954l31.497,0l-25.481,18.513l9.733,29.955l-25.481,-18.513l-25.482,18.513l9.733,-29.955l-25.481,-18.513l31.497,0l9.733,-29.954Z" style="fill:#fff;"/><path d="M1394.99,3817.72l-0,978.729l1606.2,0l0,-978.729l-58.742,0l0,920.004l-1488.72,0l0,-920.004l-58.741,0Z" style="fill:#1a1a1a;fill-rule:nonzero;"/><path d="M1394.99,2880.75l-0,978.729l58.741,0l0,-919.987l1488.72,-0l0,919.987l58.742,0l0,-978.729l-1606.2,-0Z" style="fill:#1a1a1a;fill-rule:nonzero;"/></g><g><path d="M1560.51,4306.7l-0,1066.83l1782.39,0l0,-1066.83l-234.945,-0l-0,831.883l-1312.5,0l-0,-831.883l-234.942,-0Z" style="fill:#1a1a1a;fill-rule:nonzero;"/><path d="M1560.51,3281.62l-0,1066.83l234.942,-0l-0,-831.888l1312.5,0l-0,831.888l234.945,-0l0,-1066.83l-1782.39,-0Z" style="fill:#1a1a1a;fill-rule:nonzero;"/><rect x="1677.97" y="3399.12" width="1547.46" height="1856.97" style="fill:#fff;fill-rule:nonzero;"/><rect x="1932.74" y="3653.89" width="1037.94" height="1347.4" style="fill:#8c8c8c;fill-rule:nonzero;"/><rect x="1932.74" y="3653.89" width="1037.94" height="673.7" style="fill:#07201e;fill-rule:nonzero;"/><path d="M2085.75,3837.97l9.733,29.955l31.496,0l-25.481,18.513l9.733,29.955l-25.481,-18.513l-25.481,18.513l9.733,-29.955l-25.481,-18.513l31.496,0l9.733,-29.955Z" style="fill:#fff;"/><path d="M1648.59,4306.7l0,978.729l1606.2,0l-0,-978.729l-58.742,-0l-0,920.004l-1488.72,0l-0,-920.004l-58.742,-0Z" style="fill:#1a1a1a;fill-rule:nonzero;"/><path d="M1932.74,4327.59l475.75,-475.75l251.738,328.075l167.45,-167.445l143,186.345l-0,128.775l-1037.94,0Z" style="fill:#24565a;fill-rule:nonzero;"/><path d="M2782.88,3751.27c-23,0 -45.054,9.129 -61.312,25.388c-16.263,16.262 -25.409,38.316 -25.392,61.312c0,47.883 38.817,86.704 86.704,86.704c47.883,0 86.7,-38.821 86.7,-86.704c-0,-22.996 -9.129,-45.05 -25.392,-61.312c-16.258,-16.259 -38.312,-25.388 -61.308,-25.388Z" style="fill:#fff;fill-rule:nonzero;"/><path d="M1648.59,3369.72l0,978.729l58.742,-0l-0,-919.988l1488.72,0l-0,919.988l58.742,-0l-0,-978.729l-1606.2,-0Z" style="fill:#1a1a1a;fill-rule:nonzero;"/></g><g><path d="M2167.06,5002.41l0,1066.83l1782.39,-0l-0,-1066.83l-234.946,0l-0,831.884l-1312.5,-0l-0,-831.884l-234.942,0Z" style="fill:#1a1a1a;fill-rule:nonzero;"/><path d="M2167.06,3977.33l0,1066.83l234.942,0l-0,-831.887l1312.5,-0l-0,831.887l234.946,0l-0,-1066.83l-1782.39,-0Z" style="fill:#1a1a1a;fill-rule:nonzero;"/><rect x="2284.52" y="4094.83" width="1547.46" height="1856.97" style="fill:#fff;fill-rule:nonzero;"/><rect x="2539.29" y="4349.59" width="1037.94" height="1347.4" style="fill:#c8b474;fill-rule:nonzero;"/><rect x="2539.29" y="4349.59" width="1037.94" height="673.7" style="fill:#40d3ca;fill-rule:nonzero;"/><path d="M2255.14,5002.41l-0,978.73l1606.2,-0l-0,-978.73l-58.742,0l0,920.005l-1488.72,-0l0,-920.005l-58.741,0Z" style="fill:#1a1a1a;fill-rule:nonzero;"/><path d="M3577.23,5023.29l-475.75,-475.75l-251.737,328.074l-167.45,-167.445l-143,186.345l-0,128.776l1037.94,-0Z" style="fill:#37858a;fill-rule:nonzero;"/><path d="M2849.74,4513.43c-23,0 -45.055,9.129 -61.313,25.388c-16.262,16.262 -25.408,38.316 -25.391,61.312c-0,47.883 38.816,86.704 86.704,86.704c47.883,0 86.7,-38.821 86.7,-86.704c-0,-22.996 -9.13,-45.05 -25.392,-61.312c-16.258,-16.259 -38.313,-25.388 -61.308,-25.388Z" style="fill:#ffb200;fill-rule:nonzero;"/><path d="M2255.14,4065.43l-0,978.729l58.741,0l0,-919.987l1488.72,-0l0,919.987l58.742,0l-0,-978.729l-1606.2,0Z" style="fill:#1a1a1a;fill-rule:nonzero;"/></g></g></svg>